<?xml version="1.0" encoding="utf-8"?>
<!-- Generator: Adobe Illustrator 16.0.0, SVG Export Plug-In . SVG Version: 6.00 Build 0)  -->
<!DOCTYPE svg PUBLIC "-//W3C//DTD SVG 1.1//EN" "http://www.w3.org/Graphics/SVG/1.1/DTD/svg11.dtd">
<svg version="1.1" id="Layer_1" xmlns="http://www.w3.org/2000/svg" xmlns:xlink="http://www.w3.org/1999/xlink" x="0px" y="0px"
	 width="100px" height="100px" viewBox="0 0 100 100" enable-background="new 0 0 100 100" xml:space="preserve">
<g>
	<rect x="29.629" y="51.845" fill="#006838" width="10.066" height="28.126"/>
	<polygon fill="#26A9E0" points="8.457,51.845 8.202,79.971 18.279,79.971 18.279,51.845 	"/>
	<rect x="41.498" y="51.845" fill="#EC1C24" width="7.711" height="18.434"/>
	<rect x="20.07" y="51.845" fill="#D6DE23" width="7.712" height="18.434"/>
	<rect x="51.049" y="51.845" fill="#26A9E0" width="10.073" height="28.126"/>
	<rect x="72.476" y="51.845" fill="#006838" width="10.077" height="28.126"/>
	<rect x="84.352" y="51.845" fill="#EC1C24" width="7.713" height="18.434"/>
	<rect x="62.925" y="51.845" fill="#D6DE23" width="7.712" height="18.434"/>
	<g>
		<polygon fill="#A6A8AB" points="68.472,25.522 54.953,27.852 49.432,40.906 62.932,38.604 		"/>
		<polygon fill="#A6A8AB" points="12.661,47.171 26.162,44.871 31.661,31.873 18.149,34.206 		"/>
		<polygon fill="#A6A8AB" points="50.064,28.695 36.557,31.029 31.05,44.039 44.542,41.739 		"/>
		<polygon fill="#A6A8AB" points="86.868,22.345 73.356,24.679 67.82,37.772 81.313,35.472 		"/>
		<polygon fill="#A6A8AB" points="13.265,35.046 8.402,35.888 8.402,46.529 		"/>
		<polygon fill="#A6A8AB" points="86.201,34.637 92.634,33.543 91.149,22.945 		"/>
	</g>
</g>
</svg>
