<?xml version="1.0" encoding="utf-8"?>
<!-- Generator: Adobe Illustrator 16.0.0, SVG Export Plug-In . SVG Version: 6.00 Build 0)  -->
<!DOCTYPE svg PUBLIC "-//W3C//DTD SVG 1.1//EN" "http://www.w3.org/Graphics/SVG/1.1/DTD/svg11.dtd">
<svg version="1.1" id="Layer_1" xmlns="http://www.w3.org/2000/svg" xmlns:xlink="http://www.w3.org/1999/xlink" x="0px" y="0px"
	 width="100px" height="100px" viewBox="0 0 100 100" enable-background="new 0 0 100 100" xml:space="preserve">
<g>
	<path fill="#767676" d="M32.325,67.438c1.042-0.67,1.956-1.65,3.236-1.843c0.968-0.037,1.934,0.071,2.89,0.228
		c1.111,0.172,2.23,0.276,3.349,0.358c-0.361,0.499-0.763,0.961-1.196,1.393c-0.815-0.12-1.639-0.203-2.452-0.339
		c-0.877-0.259-1.766-0.077-2.627,0.136C34.462,67.48,33.392,67.47,32.325,67.438z"/>
	<path fill="#767676" d="M43.249,66.108c0.171,0,0.519,0.011,0.69,0.017c0.286,0.006,0.847,0.021,1.127,0.025
		c-1.293,1.518-3.432,2.145-4.354,4.004c-0.86,1.418-0.408,3.121-0.361,4.68c-1.185,0.249-2.35,0.633-3.329,1.36
		c-0.784,0.529-1.607,1.038-2.207,1.786c-0.533,0.732-0.867,1.579-1.246,2.398c-0.289-1.028-0.008-2.107,0.228-3.115
		c0.171-0.758,0.811-1.288,1.561-1.433c1.134-0.084,2.404-0.188,3.165-1.152c1.361-1.242,0.995-3.205,0.935-4.836
		C40.878,68.768,42.353,67.688,43.249,66.108z"/>
	<path fill="#767676" d="M52.814,66.171c0.873,0.598,1.76,1.164,2.669,1.684c0.399,0.487,0.788,0.976,1.06,1.553
		c0.576,1.303-0.146,2.794,0.373,4.103c0.172,0.093,0.51,0.285,0.686,0.373c1.061,0.146,2.109,0.442,3.033,1.014l0.113,0.077
		c0.016,0.017,0.053,0.036,0.074,0.047l0.125,0.083c2.045,1.517,1.9,4.674,0.701,6.685c-0.271-0.815-0.318-1.823-1.051-2.384
		c-0.721-0.401-1.6-0.255-2.373-0.489c-0.539-0.405-0.852-1.039-1.172-1.609c-0.354-0.738-0.838-1.387-1.393-1.974
		c0.072-1.63-0.011-3.396-1.133-4.688c-0.592-0.753-1.355-1.393-1.729-2.29C52.586,67.646,52.772,66.898,52.814,66.171z"/>
	<path fill="#767676" d="M43.565,69.022c1.117-0.598,2.078-1.438,3.002-2.3c-0.141,1.194-0.795,2.228-1.117,3.369
		c-0.224,0.805-0.935,1.314-1.372,1.999c-0.695,1.045-0.768,2.343-0.893,3.563c-1.192,0.832-1.729,2.275-2.844,3.179
		c-0.956,0.292-2.217-0.249-2.955,0.623c-0.667,0.986-0.901,2.202-1.543,3.22c-0.496-1.215-0.511-2.586-0.241-3.854
		c0.184-0.836,0.971-1.303,1.521-1.895c0.665-0.515,1.436-0.909,2.277-1.044c0.613-0.167,1.441-0.131,1.753-0.8
		c0.296-1.309-0.351-2.737,0.301-3.978C41.883,70.181,42.683,69.495,43.565,69.022z"/>
	<path fill="#767676" d="M58.631,68.149c0.943-0.17,1.967-0.461,2.877-0.015c0.566,0.244,1.205,0.207,1.775,0.415
		c0.707,0.551,1.195,1.324,1.621,2.108c-1.061-0.348-2.037-0.903-3.133-1.121C60.65,69.297,59.404,69.075,58.631,68.149z"/>
	<path fill="#767676" d="M49.968,72.876c0.239-1.454,0.79-2.83,1.059-4.284c0.291,0.676,0.691,1.299,1.185,1.859
		c-0.218,0.788-0.603,1.594-0.416,2.436c0.239,0.971,0.759,1.843,1.008,2.819c0.321,1.329,0.592,2.73,0.368,4.112
		c-0.098,0.65-0.67,1.055-1.054,1.548c-0.03-1.786-1.475-3.069-1.724-4.788C50.197,75.353,49.927,74.117,49.968,72.876z"/>
	<path fill="#767676" d="M57.883,69.142c0.426,0.245,0.873,0.458,1.309,0.707c-0.1,1.178-0.146,2.378,0.135,3.53
		c-0.582-0.124-1.158-0.254-1.729-0.399C57.629,71.697,57.727,70.414,57.883,69.142z"/>
	<path fill="#767676" d="M62.182,75.478c0.754,0.109,1.693,0.011,2.213,0.686c0.68,0.778,0.664,1.849,0.758,2.814
		c-0.457-0.79-0.949-1.604-1.74-2.099C62.867,76.542,62.482,76.028,62.182,75.478z"/>
	<path fill="#B44584" d="M38.224,9.092c1.894-1.184,3.9-2.259,6.079-2.814c2.436-0.146,4.897-0.052,7.327,0.161
		c-4.274-0.534-8.35,1.397-11.76,3.772c-1.194,0.818-2.114,1.971-2.858,3.202c-1.369,0.646-2.256,1.947-2.924,3.256
		c-0.584,0.563-1.202,1.085-1.807,1.625c0.239-1.571,0.857-3.062,1.703-4.404C35.109,12.076,36.368,10.235,38.224,9.092z"/>
	<path fill="#00B9B0" d="M39.87,10.211c3.41-2.375,7.486-4.307,11.76-3.772c0.649,0.089,1.282,0.268,1.917,0.444
		c1.381,0.423,2.824,0.743,4.045,1.542c1.111,0.719,2.072,1.631,3.064,2.501c0.971,1.051,2.072,2.015,2.752,3.3
		c-1.055-0.525-1.781-1.469-2.711-2.166c-1.387-1.109-3.084-1.737-4.814-2.083c-1.76-0.333-3.557-0.644-5.364-0.439
		c-1.921,0.156-3.754,0.808-5.535,1.499c-0.967,0.298-1.953,0.618-2.737,1.271c-0.74,0.53-1.08,1.397-1.53,2.155
		c-1.563,1.426-2.76,3.251-3.264,5.321c-0.089,0.268-0.179,0.529-0.273,0.792c-0.049,0.068-0.143,0.195-0.189,0.259
		c-0.54,0.686-1.078,1.387-1.511,2.15c-0.104,0.166-0.309,0.496-0.411,0.662c-0.384-1.475-0.55-3.012-0.368-4.531
		c0.212-1.106,0.648-2.16,1.054-3.207c0.413-0.838,0.836-1.669,1.257-2.498C37.756,12.182,38.676,11.029,39.87,10.211z"/>
	<path fill="#94468A" d="M53.547,6.883c1.614,0.062,3.256,0.212,4.762,0.836c2.445,1.134,4.58,2.861,6.408,4.836
		c0.43,0.497,0.887,1.002,1.018,1.67c-1.547-1.309-3.225-2.472-5.078-3.3c-0.992-0.87-1.953-1.782-3.064-2.501
		C56.371,7.625,54.928,7.306,53.547,6.883z"/>
	<path fill="#7EC142" d="M44.983,11.038c1.781-0.691,3.614-1.343,5.535-1.499c1.808-0.205,3.604,0.106,5.364,0.439
		c1.73,0.345,3.428,0.974,4.814,2.083c0.93,0.696,1.656,1.641,2.711,2.166c0.508,0.802,1.121,1.529,1.693,2.288
		c1.131,1.586,1.563,3.528,2.117,5.372c0.385,1.241,0.494,2.547,0.432,3.84c-0.191,0.979-0.357,1.958-0.57,2.926
		c-0.504,1.582-1.033,3.178-1.979,4.56c-0.758,1.147-1.762,2.108-2.764,3.038c-1.371,1.025-2.689,2.189-4.326,2.788
		c-1.563,0.574-3.229,1.036-4.906,0.909c1.018-0.68,1.993-1.436,2.939-2.223c0.191-0.065,0.383-0.132,0.576-0.2
		c2.061-0.662,4.232-1.535,5.551-3.344c0.783-1.081,0.811-2.521,0.359-3.736c1.033-2.877,1.012-6.123-0.006-8.995
		c0.176-2.705-1.543-5.258-4.01-6.294c-0.586-0.408-1.162-0.813-1.744-1.215c-0.504-0.732-1.361-0.945-2.197-0.979
		c-0.067-0.016-0.187-0.055-0.254-0.078c-2.446-0.94-5.079-0.132-7.441,0.662c-1.47,0.619-2.763,1.594-3.797,2.794
		c-2.22,0.48-3.83,2.194-5.629,3.446c0.504-2.07,1.701-3.896,3.264-5.321C42.007,13.168,43.44,12.021,44.983,11.038z"/>
	<path fill="#7EC142" d="M59.711,16.508c1.283,0.838,2.305,2.236,2.367,3.807C61.295,19.04,60.563,17.731,59.711,16.508z"/>
	<path fill="#7EC142" d="M47.039,66.275c0.089-0.057,0.271-0.176,0.354-0.238c0.114,0,0.343,0.01,0.446,0.01
		c0.572,0.03,1.143,0.062,1.714,0.072c0.529-0.011,1.064-0.02,1.593-0.042c0.109,0.838,0.058,1.688-0.119,2.515
		c-0.27,1.454-0.82,2.83-1.059,4.284c-0.042,1.241,0.229,2.477,0.426,3.702c0.25,1.719,1.694,3.002,1.724,4.788l0.042,0.354
		c0.052,0.446,0.113,0.882,0.155,1.323c0.208,1.512-0.634,2.95-0.374,4.477c-0.083,1.319,0.426,2.53,1.086,3.641
		c-1.397-1.506-2.633-3.474-2.238-5.618c0.166-1.288,0.478-3.127-0.79-3.921c0.13-0.048,0.379-0.141,0.509-0.182
		c-0.26-1.31-1.372-2.182-1.787-3.417c-0.759-2.191-1.236-4.498-1.153-6.829c-0.052,1.221-0.109,2.436-0.156,3.661
		c-0.078,1.267,0.737,2.373,0.717,3.635c-0.016,1.054-0.063,2.109-0.198,3.157c-0.197,1.36-1.246,2.478-1.23,3.896
		c-0.016,1.796,0.944,3.391,1.604,5.006c0.39,1.609,0.873,3.257,0.66,4.922c-0.265-1.661-0.639-3.302-1.283-4.859
		c-0.986-1.724-2.139-3.558-2.036-5.625c0.016-0.98,0.436-1.874,0.722-2.793c0.275-0.862,0.135-1.776,0.114-2.658
		c-1.521,1.11-2.779,2.58-3.656,4.242c-0.319,0.685-0.677,1.484-0.34,2.233c0.522,1.317,2.36,1.365,2.858,2.71
		c0.229,0.717,0.488,1.517,0.239,2.254c-0.114-0.945-0.208-1.984-0.894-2.701c-0.695-0.561-1.641-0.753-2.261-1.412
		c-0.61-0.695-0.774-1.725-0.47-2.592c0.644-2.019,1.983-3.733,3.51-5.176c0.446-0.437,0.976-1.076,0.561-1.704
		c-0.634-1.424-0.712-2.991-0.717-4.528c-0.664,0.83-0.716,1.911-0.924,2.918c-0.135,0.78-0.903,1.132-1.407,1.652
		c-0.729,0.686-1.143,1.693-2.033,2.195c-0.984,0.515-1.685,1.491-1.986,2.545c-0.267,1.803-0.288,3.636-0.488,5.447
		c-0.228,1.413-0.929,2.722-1.747,3.885c0.192-1.277,1.151-2.305,1.291-3.604c0.218-1.942,0.106-3.916,0.309-5.862
		c0.177-0.847,0.691-1.564,1.122-2.29c-0.496,0.051-1.174-0.229-1.503,0.3c-0.729,1.008-1.075,2.254-1.846,3.251
		c-0.065-0.155-0.192-0.467-0.255-0.623c0.642-1.018,0.876-2.233,1.543-3.22c0.737-0.872,1.999-0.331,2.955-0.623
		c1.114-0.903,1.652-2.347,2.844-3.179c0.125-1.22,0.197-2.518,0.893-3.563c0.437-0.685,1.148-1.194,1.372-1.999
		c0.321-1.142,0.976-2.175,1.117-3.369C46.687,66.612,46.925,66.389,47.039,66.275z"/>
	<path fill="#7EC142" d="M35.685,83.043c0.083,0.167,0.254,0.504,0.337,0.676c-0.119,0.779-0.187,1.574-0.319,2.354
		c-0.12,0.7-0.59,1.297-0.641,2.008c0.191,0.65,0.443,1.273,0.499,1.959c-0.245-0.654-0.522-1.299-0.719-1.968
		c0.046-0.784,0.488-1.486,0.55-2.271C35.48,84.877,35.446,83.946,35.685,83.043z"/>
	<path fill="#CB6B8C" d="M42.247,12.309c0.784-0.654,1.77-0.974,2.737-1.271c-1.543,0.984-2.976,2.131-4.267,3.426
		C41.167,13.706,41.506,12.839,42.247,12.309z"/>
	<path fill="#CB6B8C" d="M33.94,21.735c0.875-0.563,0.535-1.743,0.761-2.618c-0.182,1.519-0.016,3.057,0.368,4.531
		c-0.616,1.062-0.953,2.267-1.179,3.469c-0.454-0.685-0.872-1.386-1.209-2.132c0-0.306,0.005-0.607,0.016-0.903
		C32.943,23.225,33.143,22.262,33.94,21.735z"/>
	<path fill="#E4BB52" d="M60.656,10.926c1.854,0.828,3.531,1.991,5.078,3.3c0.404,0.39,0.754,0.841,1.111,1.28
		c-0.52,0.438-1.117,0.755-1.744,1.007c-0.572-0.758-1.186-1.486-1.693-2.288C62.729,12.94,61.627,11.977,60.656,10.926z"/>
	<path fill="#D97C83" d="M46.879,13.545c2.363-0.794,4.995-1.602,7.441-0.662c-0.529,0.291-1.07,0.558-1.589,0.857
		c0.841,0.067,1.677,0.15,2.503,0.35l-0.084,0.39c-2.232-0.434-4.549-0.989-6.813-0.455C47.839,13.891,47.362,13.714,46.879,13.545z
		"/>
	<path fill="#F2CE50" d="M52.731,13.74c0.519-0.299,1.06-0.566,1.589-0.857c0.067,0.023,0.187,0.063,0.254,0.078
		c0.701,0.378,1.439,0.708,2.197,0.979c0.582,0.402,1.158,0.807,1.744,1.215c-0.654-0.122-1.318-0.179-1.973-0.078
		c-0.213-0.584-0.695-0.909-1.309-0.987C54.408,13.891,53.572,13.807,52.731,13.74z"/>
	<path fill="#7CBE75" d="M54.574,12.961c0.836,0.033,1.693,0.247,2.197,0.979C56.014,13.67,55.275,13.34,54.574,12.961z"/>
	<path fill="#CA648A" d="M34.088,16.669c0.667-1.309,1.555-2.61,2.924-3.256c-0.42,0.828-0.844,1.659-1.257,2.498
		C35.178,16.113,34.607,16.339,34.088,16.669z"/>
	<path fill="#804B8F" d="M43.082,16.339c1.034-1.2,2.327-2.176,3.797-2.794c0.483,0.169,0.96,0.346,1.458,0.481
		c-1.059,0.34-2.077,0.807-3.042,1.363c-1.34,0.672-2.545,1.576-3.57,2.667C42.155,17.466,42.592,16.879,43.082,16.339z"/>
	<path fill="#F1A737" d="M48.337,14.026c2.264-0.535,4.581,0.021,6.813,0.455l0.084-0.39c0.613,0.078,1.096,0.403,1.309,0.987
		c-1.424,0.562-2.701,1.558-3.318,2.988c-0.266,0.769-0.41,1.577-0.441,2.394c-0.104,2.604,0.457,5.17,0.748,7.748
		c-0.469-0.324-0.925-0.657-1.355-1.025c-0.535-0.449-1.07-0.906-1.626-1.339c-0.665-0.53-1.324-1.064-1.983-1.605l-0.021-0.21
		c-0.109-0.93-0.395-1.836-0.872-2.644c-0.167-0.256-0.333-0.501-0.52-0.739c1.184-1.064,2.279-2.218,3.531-3.202
		c-0.457-0.233-0.919-0.462-1.438-0.511c-0.846-0.102-1.672-0.273-2.487-0.501c-0.02-0.184-0.057-0.563-0.072-0.753
		c-0.467-0.093-0.924-0.189-1.392-0.288C46.26,14.833,47.278,14.366,48.337,14.026z"/>
	<path fill="#F1A737" d="M54.127,18.349c0.525-1.474,1.949-2.627,3.537-2.643c0.92,0.846,2,1.514,2.783,2.493
		c0.613,0.759,1.154,1.561,1.658,2.389c0.025,0.361,0.045,0.725,0.076,1.085c-0.467,0.345-0.902,0.711-1.344,1.085
		c0.68-0.263,1.24-0.74,1.688-1.309c1.018,2.872,1.039,6.118,0.006,8.995c-0.441-0.912-1.17-1.652-2.053-2.143l0.012-0.249
		c0.01-0.467,0.01-0.929,0.02-1.396c0.664-0.345,1.553-0.735,1.637-1.592c0.119-0.792-0.441-1.459-1.064-1.854
		c-0.791-0.52-1.781-0.369-2.67-0.395c-0.307-0.597-0.602-1.192-0.908-1.781c-0.285-0.447-0.639-0.831-1.055-1.158
		c-0.789-0.437-1.62-0.784-2.451-1.132C54.029,18.645,54.092,18.45,54.127,18.349z"/>
	<path fill="#F1A737" d="M53.807,21.268c0.119,0.088,0.363,0.265,0.488,0.355c0.326,0.278,0.644,0.579,0.934,0.901
		c0.317,0.399,0.604,0.817,0.889,1.241l0.041,0.068c-0.612,0.555-1.184,1.173-1.683,1.83C54.205,24.207,53.895,22.747,53.807,21.268
		z"/>
	<path fill="#F1A737" d="M58.822,23.399c1.07-0.164,2.342,0.127,2.883,1.15c0.332,0.914-0.691,1.459-1.33,1.849
		c-0.332-0.667-0.717-1.308-1.064-1.976C59.139,24.087,58.979,23.745,58.822,23.399z"/>
	<path fill="#5B4B43" d="M53.225,18.065c0.617-1.43,1.895-2.427,3.318-2.988c0.654-0.101,1.318-0.044,1.973,0.078
		c2.467,1.036,4.186,3.589,4.01,6.294c-0.447,0.569-1.008,1.046-1.688,1.309c0.441-0.375,0.877-0.74,1.344-1.085
		c-0.031-0.361-0.051-0.725-0.076-1.085c-0.006-0.067-0.016-0.205-0.027-0.272c-0.063-1.571-1.084-2.968-2.367-3.807
		c-0.604-0.441-1.299-0.745-2.047-0.802c-1.588,0.016-3.012,1.169-3.537,2.643c-0.129,0.078-0.394,0.233-0.523,0.312
		C53.51,18.51,53.318,18.217,53.225,18.065z"/>
	<path fill="#5B4B43" d="M52.783,20.459c0.342,0.263,0.675,0.541,1.023,0.808c0.088,1.479,0.398,2.939,0.669,4.396
		c0.499-0.657,1.07-1.275,1.683-1.83c0.104,0.166,0.322,0.501,0.426,0.667l-0.057,0.049c-0.785,0.792-1.439,1.766-1.646,2.879
		c-0.063,0.651,0.042,1.295,0.083,1.942c-0.446-0.296-0.894-0.584-1.335-0.891c-0.02-0.068-0.078-0.208-0.098-0.273
		C53.24,25.629,52.68,23.064,52.783,20.459z"/>
	<path fill="#5B4B43" d="M46.313,21.384c0.452-0.013,0.903-0.007,1.361,0c0.477,0.808,0.763,1.714,0.872,2.644
		c-0.457-0.291-0.924-0.569-1.355-0.886c-0.156-0.21-0.302-0.429-0.442-0.647c-0.161-0.277-0.317-0.561-0.467-0.844L46.313,21.384z"
		/>
	<path fill="#5B4B43" d="M58.412,22.815c0.889,0.026,1.879-0.125,2.67,0.395c0.623,0.395,1.184,1.062,1.064,1.854
		c-0.084,0.857-0.973,1.247-1.637,1.592c-0.031-0.062-0.104-0.189-0.135-0.257c0.639-0.389,1.662-0.935,1.33-1.849
		c-0.541-1.022-1.813-1.314-2.883-1.15l-0.129,0.039C58.619,23.282,58.479,22.971,58.412,22.815z"/>
	<path fill="#5B4B43" d="M60.479,28.301c0.883,0.491,1.611,1.231,2.053,2.143c0.451,1.215,0.424,2.656-0.359,3.736
		c-1.318,1.809-3.49,2.682-5.551,3.344c0.639-0.773,1.25-1.573,1.848-2.381c0.037-0.039,0.109-0.112,0.146-0.145
		c1.271-0.584,2.564-1.486,2.955-2.9c0.217-1.008-0.396-1.903-0.977-2.654c-0.043-0.051-0.115-0.163-0.156-0.212
		C60.447,28.997,60.469,28.535,60.479,28.301z"/>
	<path fill="#5B4B43" d="M43.602,37.625c0.052,0,0.146-0.005,0.187-0.005c-0.063,0.956-0.483,1.808-1.171,2.464
		c-0.589,0.078-1.174,0.173-1.761,0.241c-0.672-0.34-1.301-0.753-1.893-1.205c-0.06-0.499-0.114-0.994-0.187-1.491
		c0.213,0.234,0.426,0.473,0.621,0.73c0.439,0.662,0.953,1.396,1.841,1.436C42.54,40.098,43.705,38.911,43.602,37.625z"/>
	<path fill="#5B4B43" d="M50.592,40.858c0.779-0.277,1.568-0.527,2.357-0.76c-0.031,0.176-0.094,0.545-0.135,0.722
		c-0.27,1.158-0.483,2.332-0.696,3.507c-0.561,2.004,0.991,3.659,1.36,5.518c0.344,2.243-0.695,4.362-1.412,6.43
		c-0.446,1.558-0.654,3.438,0.426,4.797c0.769,0.935,1.916,1.455,2.867,2.203c1.256,0.939,2.969,1.017,4.174,2.03
		c-0.498,0.062-1.018,0.072-1.51,0.191l-0.287,0.037c-0.561,0.063-1.121,0.119-1.682,0.192l-0.104,0.01
		c-0.738-0.431-1.486-0.862-2.191-1.34c-0.286-0.198-0.561-0.395-0.832-0.603c-0.321-0.265-0.633-0.53-0.93-0.815
		c-0.508-0.514-0.976-1.054-1.396-1.641c-0.509-0.742-0.779-1.604-1.033-2.462c-0.467-2.923,1.646-5.499,1.205-8.418
		c-0.182-0.825-0.572-1.589-0.909-2.357c-0.265-0.665-0.463-1.363-0.634-2.059C49.314,44.226,49.953,42.536,50.592,40.858z"/>
	<path fill="#5B4B43" d="M48.826,40.926c0.52-0.011,1.039,0.005,1.568,0.005c-0.333,0.135-0.66,0.282-0.997,0.413
		c-0.483,0.055-0.971,0.083-1.454,0.117c0.031,1.007,0.166,2.009,0.41,2.983c0.41,1.953,0.587,3.988,0.213,5.961
		c-0.509,2.39-1.641,4.731-1.34,7.229c0.078,0.592,0.187,1.175,0.28,1.761c-0.592,1.185-1.345,2.291-2.248,3.268
		c-0.322,0.212-0.639,0.425-0.976,0.623l-0.224,0.093c1.225-1.226,1.413-3.033,1.994-4.591c0.749-2.113-0.456-4.3-0.057-6.444
		c0.306-1.678,0.836-3.319,1.636-4.824c0.655-1.122,0.499-2.452,0.338-3.672c-0.068-0.459-0.156-0.922-0.244-1.379
		c-0.031-0.117-0.083-0.35-0.109-0.462c-0.067-0.312-0.129-0.618-0.192-0.924C47.891,41.022,48.353,40.964,48.826,40.926z"/>
	<path fill="#B0B846" d="M41.725,18.056c1.025-1.091,2.23-1.995,3.57-2.667c0.467,0.099,0.924,0.195,1.392,0.288
		c0.016,0.19,0.052,0.569,0.072,0.753c-0.956,0.735-1.999,1.348-2.955,2.08c-0.81-0.01-1.618-0.078-2.425-0.109
		C41.465,18.31,41.638,18.144,41.725,18.056z"/>
	<path fill="#E3C94E" d="M65.102,16.513c0.627-0.252,1.225-0.569,1.744-1.007l0.02,0.116c0.76,3.272,2.291,6.795,0.785,10.104
		c0.063-1.293-0.047-2.599-0.432-3.84C66.664,20.042,66.232,18.1,65.102,16.513z"/>
	<path fill="#BE2089" d="M57.664,15.706c0.748,0.058,1.443,0.361,2.047,0.802c0.852,1.223,1.584,2.532,2.367,3.807
		c0.012,0.067,0.021,0.206,0.027,0.272c-0.504-0.828-1.045-1.63-1.658-2.389C59.664,17.219,58.584,16.552,57.664,15.706z"/>
	<path fill="#BE2089" d="M40.247,36.561c0.774-0.576,1.753-0.667,2.69-0.639c0.79,0.41,1.325,1.147,1.974,1.742
		c-0.374-0.023-0.748-0.034-1.122-0.044c-0.042,0-0.135,0.005-0.187,0.005c-0.488,0.021-0.971,0.078-1.446,0.176
		C41.514,37.392,40.875,36.984,40.247,36.561z"/>
	<path fill="#DED32C" d="M66.865,15.622c1.705,2.07,3.168,4.493,3.465,7.214c0.16,1.498,0.473,3.022,0.109,4.521
		c-0.504,2.604-1.08,5.403-2.98,7.392c-1.186,1.237-2.348,2.521-3.719,3.55c2.275-2.639,3.246-6.216,3.34-9.646
		c0.213-0.968,0.379-1.948,0.57-2.926C69.156,22.417,67.625,18.895,66.865,15.622z"/>
	<path fill="#7A4591" d="M34.088,16.669c0.52-0.33,1.09-0.556,1.667-0.758c-0.405,1.046-0.841,2.101-1.054,3.207
		c-0.227,0.875,0.114,2.054-0.761,2.618c-0.797,0.527-0.997,1.49-1.244,2.347c-0.66-0.974-0.426-2.214-0.722-3.3
		c0.187-0.351,0.376-0.69,0.566-1.036l-0.462,0.14c0.083-0.452,0.135-0.914,0.184-1.368l0.019-0.224
		C32.886,17.754,33.503,17.232,34.088,16.669z"/>
	<path fill="#4BB04B" d="M37.453,19.785c1.799-1.251,3.409-2.966,5.629-3.446c-0.49,0.54-0.927,1.127-1.357,1.716
		c-0.086,0.088-0.26,0.254-0.346,0.345c-1.565,0.361-3.001,1.106-4.199,2.176C37.274,20.314,37.364,20.053,37.453,19.785z"/>
	<path fill="#D5C23D" d="M43.804,18.51c0.956-0.732,1.999-1.345,2.955-2.08c0.815,0.228,1.641,0.399,2.487,0.501
		c-1.054,0.93-2.388,1.485-3.391,2.487C45.222,19.005,44.516,18.733,43.804,18.51z"/>
	<path fill="#F7CB33" d="M49.246,16.931c0.52,0.049,0.982,0.278,1.438,0.511c-1.251,0.984-2.347,2.138-3.531,3.202
		c-0.4-0.447-0.841-0.852-1.298-1.226C46.858,18.417,48.192,17.861,49.246,16.931z"/>
	<path fill="#9E5D3F" d="M52.783,20.459c0.031-0.817,0.176-1.625,0.441-2.394c0.094,0.151,0.285,0.444,0.379,0.595
		c0.13-0.078,0.395-0.233,0.523-0.312c-0.035,0.102-0.098,0.296-0.129,0.395c-0.223,0.821-0.249,1.677-0.191,2.524
		C53.458,21,53.125,20.722,52.783,20.459z"/>
	<path fill="#5E7B4E" d="M37.18,20.577c1.197-1.07,2.633-1.815,4.199-2.176c0.807,0.031,1.615,0.099,2.425,0.109
		c-0.296,0.324-0.597,0.651-0.888,0.977c-0.732-0.034-1.465,0.005-2.176,0.15c-1.796,0.221-3.357,1.651-3.505,3.495
		c0.083,0.561,0.203,1.124,0.377,1.669c0.358,0.395,0.75,0.756,1.192,1.062c0.872,0.33,1.957,0.052,2.503-0.727
		c0.293-0.569,0.247-1.236,0.343-1.854c0.028,0.187,0.083,0.571,0.111,0.76c0.054,1.052-0.641,1.976-1.677,2.194
		c-1.397,0.189-2.568-0.745-3.292-1.843c-0.096-1.189-0.132-2.399,0.2-3.558C37.038,20.771,37.131,20.645,37.18,20.577z"/>
	<path fill="#654687" d="M30.12,22.363c0.605-1.342,1.251-2.672,2.142-3.845c-0.049,0.454-0.101,0.916-0.184,1.368
		c-0.537,0.663-1.069,1.348-1.327,2.171c0.309-0.244,0.61-0.506,0.901-0.779c-0.117,1.425-0.34,2.861-0.156,4.292
		c-0.691,1.729-0.823,3.583-0.75,5.432c-0.457-1.636-0.66-3.329-0.903-5.003C29.749,24.791,29.56,23.493,30.12,22.363z"/>
	<path fill="#95884B" d="M43.804,18.51c0.712,0.224,1.417,0.496,2.051,0.909c0.457,0.374,0.898,0.779,1.298,1.226
		c0.187,0.238,0.353,0.483,0.52,0.739c-0.458-0.007-0.909-0.013-1.361,0l-0.031,0.268c-0.218-0.312-0.457-0.607-0.702-0.893
		c-0.285-0.226-0.586-0.444-0.888-0.649c-0.571-0.273-1.173-0.467-1.775-0.623C43.207,19.161,43.508,18.834,43.804,18.51z"/>
	<path fill="#EE7434" d="M53.807,21.268c-0.058-0.847-0.031-1.703,0.191-2.524c0.831,0.348,1.662,0.696,2.451,1.132
		c-0.811,0.461-1.6,0.984-2.154,1.747C54.17,21.532,53.926,21.355,53.807,21.268z"/>
	<path fill="#D3CB38" d="M40.74,19.637c0.711-0.146,1.444-0.184,2.176-0.15c0.602,0.156,1.205,0.35,1.775,0.623
		c-1.267,0.906-2.606,1.708-3.92,2.542c-0.452,0.307-1.008,0.375-1.532,0.47c0.2-0.597,0.376-1.197,0.63-1.771
		C40.169,20.776,40.473,20.213,40.74,19.637z"/>
	<path fill="#78BB49" d="M37.235,23.132c0.148-1.844,1.709-3.274,3.505-3.495c-0.267,0.576-0.571,1.14-0.87,1.714
		C38.904,21.807,38.076,22.485,37.235,23.132z"/>
	<path fill="#B4AE4C" d="M32.078,19.886l0.462-0.14c-0.189,0.346-0.379,0.686-0.566,1.036c-0.078,0.122-0.242,0.369-0.322,0.496
		c-0.291,0.273-0.592,0.535-0.901,0.779C31.009,21.233,31.541,20.548,32.078,19.886z"/>
	<path fill="#EC7149" d="M54.295,21.623c0.555-0.763,1.344-1.286,2.154-1.747c0.416,0.327,0.77,0.711,1.055,1.158
		c-0.789,0.449-1.553,0.945-2.275,1.491C54.938,22.202,54.621,21.901,54.295,21.623z"/>
	<path fill="#F7DA2B" d="M40.771,22.651c1.314-0.833,2.653-1.635,3.92-2.542c0.301,0.205,0.603,0.423,0.888,0.649
		c-1.251,1.109-2.124,2.831-3.819,3.284c-0.029-0.189-0.083-0.573-0.111-0.76c-0.096,0.618-0.05,1.285-0.343,1.854
		c-0.546,0.779-1.631,1.057-2.503,0.727c0.181-0.912,0.363-1.821,0.436-2.742C39.764,23.025,40.32,22.958,40.771,22.651z"/>
	<path fill="#835691" d="M31.652,21.278c0.081-0.127,0.244-0.374,0.322-0.496c0.296,1.086,0.062,2.326,0.722,3.3
		c-0.011,0.296-0.016,0.597-0.016,0.903c-0.07,1.179-0.208,2.366-0.252,3.555c-0.449-0.945-0.774-1.942-0.932-2.97
		C31.312,24.139,31.536,22.703,31.652,21.278z"/>
	<path fill="#8A9180" d="M35.48,22.986c0.433-0.763,0.971-1.464,1.511-2.15c-0.332,1.158-0.296,2.368-0.2,3.558l-0.166,0.291
		c-0.33,0.218-0.668,0.418-1,0.623c-0.192-0.171-0.385-0.345-0.577-0.512C35.225,24.199,35.342,23.589,35.48,22.986z"/>
	<path fill="#F6B92E" d="M45.58,20.758c0.245,0.286,0.484,0.582,0.702,0.893c0.15,0.283,0.306,0.566,0.467,0.844
		c-0.852,0.904-1.724,1.811-2.695,2.583c-1.448,1.169-2.687,2.565-3.884,3.981c-0.226-0.613-0.521-1.197-0.766-1.799
		c-0.034-0.187-0.101-0.566-0.135-0.756c0.268-0.091,0.545-0.179,0.815-0.268c1.036-0.218,1.731-1.143,1.677-2.194
		C43.456,23.589,44.328,21.868,45.58,20.758z"/>
	<path fill="#EB705E" d="M55.229,22.524c0.723-0.546,1.486-1.042,2.275-1.491c0.307,0.589,0.602,1.184,0.908,1.781
		c-0.783,0.289-1.547,0.604-2.295,0.95C55.832,23.342,55.546,22.924,55.229,22.524z"/>
	<path fill="#93C445" d="M37.235,23.132c0.841-0.647,1.669-1.325,2.635-1.781c-0.254,0.574-0.431,1.174-0.63,1.771
		c-0.548,0.556-1.096,1.106-1.628,1.68C37.438,24.256,37.318,23.692,37.235,23.132z"/>
	<path fill="#F19031" d="M46.749,22.495c0.14,0.218,0.286,0.437,0.442,0.647c0.088,1.659-0.348,3.29-1.123,4.754
		c-0.914,0.322-1.719,0.891-2.332,1.636c-0.238-0.039-0.478-0.078-0.706-0.122c-0.462,0.779-1.031,2.205-2.145,1.926
		c-0.137-0.586-0.309-1.153-0.508-1.722c-0.052-0.132-0.156-0.412-0.208-0.555c1.197-1.416,2.436-2.812,3.884-3.981
		C45.024,24.306,45.897,23.399,46.749,22.495z"/>
	<path fill="#A84D63" d="M56.117,23.765c0.748-0.346,1.512-0.662,2.295-0.95c0.066,0.156,0.207,0.467,0.281,0.623
		c-0.732,0.283-1.445,0.628-2.109,1.062c-0.104-0.166-0.322-0.501-0.426-0.667L56.117,23.765z"/>
	<path fill="#A64592" d="M35.48,22.986c-0.138,0.603-0.255,1.213-0.432,1.81c-0.153,0.54-0.309,1.08-0.418,1.636
		c-0.109,1.168-0.034,2.342,0.081,3.508c0.073,1.189,0.514,2.308,0.943,3.412l-0.089,0.192c-0.49-0.517-1.025-0.984-1.521-1.49
		c-0.07-0.245-0.138-0.491-0.205-0.735c-0.049-1.397-0.034-2.805,0.051-4.202c0.227-1.202,0.563-2.407,1.179-3.469
		C35.171,23.482,35.375,23.152,35.48,22.986z"/>
	<path fill="#B3CF3D" d="M37.612,24.801c0.532-0.574,1.08-1.125,1.628-1.68c-0.073,0.921-0.255,1.831-0.436,2.742
		C38.362,25.557,37.97,25.196,37.612,24.801z"/>
	<path fill="#9D4A4B" d="M47.19,23.142c0.431,0.317,0.898,0.595,1.355,0.886l0.021,0.21c0.036,1.148-0.187,2.288-0.623,3.352
		c-0.063,0.083-0.187,0.257-0.25,0.34c0.488,0.195,0.981,0.39,1.464,0.61c-0.301,0.18-0.603,0.369-0.903,0.563
		c-0.889-0.218-1.911-0.278-2.68,0.296c-0.738,0.532-1.444,1.729-0.488,2.41c-0.28,0.073-0.566,0.133-0.847,0.21
		c-0.473,0.185-0.935,0.423-1.397,0.651c0.229-1.051,0.208-2.248,0.893-3.139c0.613-0.746,1.418-1.314,2.332-1.636
		C46.842,26.432,47.278,24.801,47.19,23.142z"/>
	<path fill="#E77075" d="M58.693,23.438l0.129-0.039c0.156,0.345,0.316,0.688,0.488,1.022c-0.785,0.53-1.584,1.046-2.395,1.543
		c-0.094-0.486-0.229-0.953-0.389-1.416l0.057-0.049C57.248,24.066,57.961,23.721,58.693,23.438z"/>
	<path fill="#EE774A" d="M48.566,24.238c0.66,0.541,1.318,1.075,1.983,1.605c-0.831,0.633-1.724,1.184-2.606,1.747
		C48.379,26.525,48.602,25.386,48.566,24.238z"/>
	<path fill="#C1C739" d="M36.791,24.394c0.725,1.099,1.896,2.033,3.292,1.843c-0.27,0.089-0.548,0.177-0.815,0.268
		c0.034,0.189,0.101,0.569,0.135,0.756c-0.592,0.441-1.199,0.87-1.787,1.332c-0.272-0.758-0.586-1.498-0.807-2.272
		c-0.083-0.545-0.146-1.09-0.184-1.636L36.791,24.394z"/>
	<path fill="#BB6A76" d="M56.916,25.965c0.811-0.497,1.609-1.013,2.395-1.543c0.348,0.668,0.732,1.309,1.064,1.976
		c0.031,0.068,0.104,0.195,0.135,0.257c-0.01,0.467-0.01,0.929-0.02,1.396c-1.34-0.179-2.805,0.229-3.418,1.524
		C57.094,28.369,56.99,27.167,56.916,25.965z"/>
	<path fill="#AD9980" d="M35.048,24.796c0.192,0.167,0.385,0.34,0.577,0.512c0.332-0.205,0.669-0.405,1-0.623
		c0.039,0.545,0.101,1.09,0.184,1.636c-0.722,0.062-1.451,0.112-2.179,0.112C34.74,25.876,34.896,25.336,35.048,24.796z"/>
	<path fill="#F2A637" d="M54.881,27.429c0.207-1.114,0.861-2.087,1.646-2.879c0.16,0.462,0.295,0.93,0.389,1.416
		c0.074,1.202,0.178,2.404,0.156,3.611c-0.145,0.462-0.301,0.924-0.436,1.392c-0.551-0.473-1.102-0.935-1.662-1.392l-0.011-0.205
		C54.923,28.724,54.818,28.08,54.881,27.429z"/>
	<path fill="#B7808C" d="M32.429,28.54c0.044-1.189,0.182-2.375,0.252-3.555c0.337,0.746,0.755,1.447,1.209,2.132
		c-0.085,1.397-0.101,2.805-0.051,4.202c-0.416-0.842-0.893-1.655-1.33-2.488C32.491,28.758,32.452,28.608,32.429,28.54z"/>
	<path fill="#745799" d="M31.497,25.57c0.158,1.028,0.483,2.025,0.932,2.97c0.023,0.068,0.063,0.218,0.081,0.291
		c-0.036,0.711-0.055,1.44,0.194,2.127c-0.586,0.389-1.158,0.8-1.7,1.246c-0.102-0.4-0.278-0.785-0.257-1.202
		C30.673,29.153,30.806,27.299,31.497,25.57z"/>
	<path fill="#ED755F" d="M47.943,27.59c0.882-0.563,1.775-1.114,2.606-1.747c0.556,0.434,1.091,0.891,1.626,1.339
		c-0.805,0.569-1.615,1.125-2.462,1.644c-0.14-0.072-0.415-0.218-0.555-0.286c-0.483-0.221-0.977-0.415-1.464-0.61
		C47.756,27.847,47.881,27.673,47.943,27.59z"/>
	<path fill="#D0957C" d="M34.63,26.432c0.728,0,1.457-0.05,2.179-0.112c0.221,0.774,0.535,1.514,0.807,2.272l-0.067,0.093
		c-0.221-0.023-0.441-0.044-0.66-0.067c-0.667,0.535-1.397,0.974-2.179,1.322C34.597,28.774,34.521,27.6,34.63,26.432z"/>
	<path fill="#C1AB38" d="M39.403,27.26c0.245,0.602,0.541,1.187,0.766,1.799c0.052,0.143,0.156,0.423,0.208,0.555
		c-0.367-0.205-0.728-0.412-1.086-0.618c0.04,0.346,0.081,0.696,0.125,1.041c-0.33,0.127-0.651,0.268-0.973,0.413
		c-0.254-0.607-0.563-1.192-0.893-1.766l0.067-0.093C38.204,28.13,38.811,27.702,39.403,27.26z"/>
	<path fill="#E87275" d="M49.713,28.826c0.847-0.519,1.658-1.075,2.462-1.644c0.431,0.369,0.887,0.701,1.355,1.025
		c-0.115,1.218-1.288,1.704-2.188,2.283C50.877,29.867,50.332,29.299,49.713,28.826z"/>
	<path fill="#BA6B78" d="M53.531,28.208c0.02,0.065,0.078,0.205,0.098,0.273c0.043,1.48-0.119,2.96-0.451,4.404
		c-0.1,0.356-0.213,0.717-0.343,1.067c-0.135,0.029-0.415,0.089-0.556,0.123c-0.026-0.78-0.172-1.548-0.405-2.275
		c-0.161-0.446-0.337-0.885-0.53-1.309C52.243,29.912,53.416,29.426,53.531,28.208z"/>
	<path fill="#5B446C" d="M57.072,29.576c0.613-1.295,2.078-1.703,3.418-1.524l-0.012,0.249c-0.01,0.234-0.031,0.696-0.041,0.93
		c-0.633-0.161-1.34-0.522-1.984-0.205c-1.027,0.634-1.563,2.043-0.934,3.139c-0.084,0.049-0.244,0.138-0.328,0.185
		c-0.285-0.413-0.488-0.88-0.555-1.382C56.771,30.5,56.928,30.038,57.072,29.576z"/>
	<path fill="#D06168" d="M36.89,28.618c0.218,0.023,0.439,0.044,0.66,0.067c0.33,0.574,0.639,1.158,0.893,1.766
		c0.054,0.122,0.166,0.361,0.22,0.483c-1.11,0.667-1.96,1.665-3.009,2.417c-0.429-1.104-0.87-2.223-0.943-3.412
		C35.493,29.592,36.222,29.153,36.89,28.618z"/>
	<path fill="#9E4869" d="M49.158,28.54c0.14,0.068,0.415,0.213,0.555,0.286c0.619,0.473,1.164,1.041,1.63,1.665
		c0.193,0.423,0.369,0.862,0.53,1.309c-0.161,0.088-0.468,0.271-0.618,0.366c-0.295-0.662-0.675-1.275-1.121-1.826
		c-0.385-0.334-0.79-0.636-1.216-0.909c-0.218-0.117-0.441-0.228-0.664-0.327C48.556,28.909,48.857,28.72,49.158,28.54z"/>
	<path fill="#6F456B" d="M53.629,28.48c0.441,0.306,0.889,0.595,1.335,0.891l0.011,0.205c0.057,1.134,0.094,2.282-0.083,3.406
		c-0.052-0.21-0.155-0.646-0.208-0.862c-0.504,0.254-1.012,0.501-1.506,0.764C53.51,31.44,53.672,29.96,53.629,28.48z"/>
	<path fill="#C21888" d="M65.102,33.211c0.945-1.381,1.475-2.978,1.979-4.56c-0.094,3.43-1.064,7.008-3.34,9.646
		c-1.578,1.708-3.178,3.523-5.359,4.462c-1.656,0.665-3.37,1.265-5.162,1.393c1.896-0.712,3.797-1.54,5.354-2.862
		c1.615-1.379,2.789-3.183,3.766-5.042C63.34,35.32,64.344,34.359,65.102,33.211z"/>
	<path fill="#3F6D96" d="M32.509,28.831c0.437,0.833,0.914,1.646,1.33,2.488c0.067,0.244,0.135,0.49,0.205,0.735
		c0.132,0.695,0.257,1.392,0.47,2.071c-0.8-0.929-1.312-2.062-1.811-3.167C32.455,30.271,32.473,29.542,32.509,28.831z"/>
	<path fill="#BF8A35" d="M39.291,28.997c0.358,0.206,0.719,0.413,1.086,0.618c0.2,0.569,0.371,1.135,0.508,1.722l0.102,0.304
		c-0.374-0.533-0.766-1.057-1.166-1.569c0.252,1.146,0.829,2.176,1.229,3.267c-0.32-0.245-0.639-0.473-0.945-0.722
		c-0.55-0.497-1.057-1.046-1.441-1.683c-0.054-0.122-0.166-0.361-0.22-0.483c0.322-0.146,0.644-0.286,0.973-0.413
		C39.372,29.693,39.331,29.343,39.291,28.997z"/>
	<path fill="#EF8161" d="M45.575,29.399c0.769-0.574,1.791-0.514,2.68-0.296c0.223,0.099,0.446,0.21,0.664,0.327
		c-1.267,0.808-2.493,1.688-3.832,2.378C44.131,31.129,44.837,29.932,45.575,29.399z"/>
	<path fill="#8C667B" d="M58.453,29.026c0.645-0.317,1.352,0.044,1.984,0.205c0.041,0.049,0.113,0.161,0.156,0.212
		c-0.021,0.078-0.068,0.239-0.084,0.322c-1.027,0.764-1.9,1.727-2.99,2.399C56.891,31.069,57.426,29.66,58.453,29.026z"/>
	<path fill="#F19052" d="M43.03,29.41c0.229,0.044,0.468,0.083,0.706,0.122c-0.685,0.891-0.664,2.087-0.893,3.139
		c-0.031,0.346-0.063,0.686-0.088,1.031c-0.642-0.641-1.291-1.287-1.769-2.061l-0.102-0.304C42,31.615,42.568,30.189,43.03,29.41z"
		/>
	<path fill="#EC8374" d="M45.087,31.809c1.339-0.691,2.565-1.57,3.832-2.378c0.426,0.273,0.831,0.574,1.216,0.909
		c-1.818,1.34-3.448,2.921-5.338,4.167c-0.146-0.055-0.442-0.161-0.593-0.215c-0.01-0.764,0.011-1.519,0.037-2.272
		C44.521,31.942,44.807,31.882,45.087,31.809z"/>
	<path fill="#906678" d="M54.975,29.576c0.561,0.457,1.111,0.919,1.662,1.392c0.066,0.501,0.27,0.969,0.555,1.382
		c-0.789,0.449-1.594,0.877-2.42,1.251c0.031-0.156,0.089-0.463,0.12-0.619C55.068,31.858,55.031,30.71,54.975,29.576z"/>
	<path fill="#EFAF2A" d="M60.51,29.766c0.016-0.083,0.063-0.244,0.084-0.322c0.58,0.751,1.193,1.646,0.977,2.654
		c-0.391,1.415-1.684,2.316-2.955,2.9C59.404,33.318,60.084,31.575,60.51,29.766z"/>
	<path fill="#888483" d="M57.52,32.165c1.09-0.672,1.963-1.636,2.99-2.399c-0.426,1.81-1.105,3.552-1.895,5.232
		c-0.037,0.033-0.109,0.106-0.146,0.145c-1.23,0.356-2.486,0.667-3.77,0.74c-0.141-0.049-0.41-0.146-0.545-0.195
		c0.104-0.363,0.197-0.724,0.311-1.08c0.094-0.34,0.209-0.672,0.307-1.007c0.826-0.374,1.631-0.803,2.42-1.251
		C57.275,32.303,57.436,32.214,57.52,32.165z"/>
	<path fill="#9D4766" d="M39.821,30.072c0.4,0.512,0.792,1.036,1.166,1.569c0.478,0.774,1.127,1.42,1.769,2.061
		c0.025-0.345,0.057-0.685,0.088-1.031c0.462-0.228,0.924-0.467,1.397-0.651c-0.026,0.753-0.047,1.508-0.037,2.272
		c0.011,0.166,0.031,0.501,0.037,0.667c-0.436,0.321-0.867,0.646-1.304,0.963c-0.937-0.029-1.916,0.063-2.69,0.639
		c-0.579,0.431-0.753,1.119-0.849,1.799c-0.195-0.257-0.407-0.496-0.621-0.73l-0.094-0.106c0.408-0.628,0.774-1.329,1.418-1.763
		c0.67-0.473,1.514-0.559,2.292-0.73c-0.395-0.607-0.835-1.181-1.345-1.692C40.65,32.248,40.073,31.217,39.821,30.072z"/>
	<path fill="#C97A78" d="M50.135,30.339c0.446,0.551,0.826,1.164,1.121,1.826c0.031,0.117,0.109,0.346,0.146,0.457
		c-1.268,0.808-2.421,1.792-3.719,2.561c-0.981,0.657-1.983-0.312-2.887-0.675C46.687,33.261,48.317,31.68,50.135,30.339z"/>
	<path fill="#865599" d="M31.003,32.204c0.542-0.446,1.114-0.857,1.7-1.246c0.499,1.105,1.011,2.238,1.811,3.167
		c0.049,0.06,0.145,0.187,0.191,0.25c-0.55,0.652-1.101,1.303-1.641,1.953c-0.551-0.785-1.099-1.569-1.6-2.387
		c-0.27-0.524-0.384-1.108-0.556-1.659L31.003,32.204z"/>
	<path fill="#CB2E65" d="M35.654,33.352c1.049-0.753,1.898-1.75,3.009-2.417c0.385,0.637,0.891,1.187,1.441,1.683
		c-0.605,0.438-1.272,0.817-1.766,1.383c-0.208,0.53-0.208,1.114-0.285,1.672c-0.543-0.324-1.096-0.63-1.613-0.991
		c-0.282-0.385-0.563-0.774-0.875-1.138L35.654,33.352z"/>
	<path fill="#64436B" d="M51.256,32.165c0.15-0.096,0.457-0.278,0.618-0.366c0.233,0.727,0.379,1.495,0.405,2.275
		c-0.4,0.968-0.92,1.903-1.854,2.461c-0.613-0.013-1.23-0.013-1.849,0c-0.239-0.194-0.499-0.363-0.748-0.535
		c-0.01-0.106-0.021-0.316-0.031-0.422c0.862,0.301,1.869,0.719,2.736,0.21c0.956-0.717,1.086-2.074,0.868-3.166
		C51.365,32.511,51.287,32.282,51.256,32.165z"/>
	<path fill="#944789" d="M34.044,32.054c0.496,0.506,1.031,0.973,1.521,1.49c0.312,0.364,0.593,0.753,0.875,1.138
		c0.611,1.046,1.351,2.02,2.244,2.843l0.094,0.106c0.073,0.497,0.127,0.992,0.187,1.491c-0.267-0.206-0.529-0.411-0.789-0.616
		c-0.743-0.592-1.457-1.215-2.153-1.866c-0.552,0.408-1.08,0.924-0.849,1.677c-0.493-0.325-0.981-0.646-1.467-0.982
		c-1.197-0.75-2.256-1.885-2.241-3.394c0.501,0.818,1.049,1.602,1.6,2.387c0.54-0.65,1.09-1.301,1.641-1.953
		c-0.046-0.063-0.143-0.19-0.191-0.25C34.301,33.445,34.176,32.749,34.044,32.054z"/>
	<path fill="#4D486F" d="M53.178,32.884c0.494-0.263,1.002-0.509,1.506-0.764c0.053,0.216,0.156,0.652,0.208,0.862
		c-0.031,0.156-0.089,0.463-0.12,0.619c-0.098,0.334-0.213,0.667-0.307,1.007c-0.799,0.691-1.692,1.257-2.638,1.708
		c0.396-0.763,0.737-1.552,1.008-2.365C52.965,33.601,53.078,33.24,53.178,32.884z"/>
	<path fill="#CD287C" d="M38.338,34c0.494-0.566,1.161-0.945,1.766-1.383c0.307,0.249,0.625,0.477,0.945,0.722
		c0.509,0.511,0.95,1.085,1.345,1.692c-0.779,0.171-1.623,0.257-2.292,0.73c-0.644,0.434-1.01,1.134-1.418,1.763
		c-0.893-0.823-1.633-1.796-2.244-2.843c0.518,0.361,1.07,0.667,1.613,0.991C38.13,35.115,38.13,34.53,38.338,34z"/>
	<path fill="#9F7179" d="M47.683,35.182c1.298-0.769,2.452-1.752,3.719-2.561c0.218,1.091,0.088,2.449-0.868,3.166
		c-0.867,0.509-1.875,0.091-2.736-0.21c0.01,0.106,0.021,0.316,0.031,0.422c-1.007-0.282-2.046-0.467-3.09-0.496
		c-0.176-0.179-0.343-0.355-0.499-0.545c-0.005-0.166-0.026-0.501-0.037-0.667c0.151,0.054,0.447,0.161,0.593,0.215
		C45.7,34.871,46.702,35.839,47.683,35.182z"/>
	<path fill="#82717F" d="M52.279,34.074c0.141-0.034,0.421-0.094,0.556-0.123c-0.271,0.813-0.612,1.602-1.008,2.365
		c-0.409,0.374-0.81,0.746-1.251,1.076l-0.369,0.039l0.042-0.156c0.047-0.184,0.135-0.558,0.177-0.74
		C51.359,35.977,51.879,35.042,52.279,34.074z"/>
	<path fill="#485C77" d="M51.827,36.316c0.945-0.452,1.839-1.018,2.638-1.708c-0.113,0.356-0.207,0.717-0.311,1.08
		c0.135,0.05,0.404,0.146,0.545,0.195c0.182,0.093,0.358,0.189,0.545,0.289c-1.594,1.054-3.105,2.223-4.684,3.289
		c-0.634,0.423-1.205,0.919-1.735,1.465c-0.473,0.039-0.935,0.096-1.402,0.156c-0.073-0.434-0.14-0.868-0.229-1.295
		c1.153-0.759,2.285-1.553,3.381-2.394C51.018,37.062,51.418,36.69,51.827,36.316z"/>
	<path fill="#76456B" d="M42.937,35.922c0.437-0.317,0.868-0.642,1.304-0.963c0.156,0.189,0.322,0.366,0.499,0.545
		c0.815,0.696,1.745,1.241,2.638,1.831c-0.67,0.068-1.189,0.491-1.641,0.935c-0.286-0.192-0.562-0.395-0.826-0.605
		C44.261,37.07,43.726,36.332,42.937,35.922z"/>
	<path fill="#426E80" d="M54.699,35.883c1.283-0.073,2.539-0.384,3.77-0.74c-0.598,0.808-1.209,1.607-1.848,2.381
		c-0.193,0.068-0.385,0.135-0.576,0.2c-0.717,0.092-1.507-0.06-2.182,0.248c-0.488,0.545-0.664,1.29-0.883,1.975
		c0.769,0.234,0.498,0.808-0.166,0.873c0.041-0.177,0.104-0.546,0.135-0.722c-0.789,0.233-1.578,0.483-2.357,0.76l-0.198,0.073
		c-0.529,0-1.049-0.016-1.568-0.005c0.53-0.545,1.101-1.042,1.735-1.465c1.578-1.066,3.09-2.235,4.684-3.289
		C55.058,36.073,54.881,35.977,54.699,35.883z"/>
	<path fill="#8F2B8C" d="M44.739,35.504c1.044,0.028,2.083,0.213,3.09,0.496c0.25,0.172,0.509,0.341,0.748,0.535
		c0.342,0.662,1.007,0.717,1.672,0.74l-0.042,0.156c-0.935,0.028-1.942,0.355-2.83-0.096C46.484,36.745,45.554,36.2,44.739,35.504z"
		/>
	<path fill="#7497AB" d="M58.012,39.038c1.637-0.599,2.955-1.763,4.326-2.788c-0.977,1.859-2.15,3.663-3.766,5.042
		c-1.557,1.322-3.458,2.15-5.354,2.862c-0.363,0.078-0.736,0.135-1.101,0.173c0.213-1.176,0.427-2.349,0.696-3.507
		c0.664-0.065,0.935-0.639,0.166-0.873h0.125C54.783,40.074,56.449,39.612,58.012,39.038z"/>
	<path fill="#983F77" d="M35.173,38.316c-0.231-0.753,0.297-1.27,0.849-1.677c0.696,0.651,1.41,1.274,2.153,1.866
		c-0.245,0.395-0.486,0.795-0.728,1.197C36.685,39.241,35.918,38.794,35.173,38.316z"/>
	<path fill="#B5408D" d="M39.398,38.36c0.096-0.681,0.27-1.369,0.849-1.799c0.628,0.423,1.267,0.831,1.909,1.241
		C41.293,38.238,40.377,38.648,39.398,38.36z"/>
	<path fill="#2C75A3" d="M48.577,36.535c0.618-0.013,1.236-0.013,1.849,0c-0.042,0.182-0.13,0.556-0.177,0.74
		C49.584,37.252,48.919,37.197,48.577,36.535z"/>
	<path fill="#4B4F81" d="M33.706,37.334c0.486,0.335,0.974,0.657,1.467,0.982c0.746,0.478,1.512,0.924,2.275,1.386l0.252,0.156
		c-0.021,0.434-0.042,0.878-0.068,1.319C35.897,40.448,34.457,39.071,33.706,37.334z"/>
	<path fill="#4C496E" d="M45.736,38.27c0.452-0.444,0.97-0.867,1.641-0.935c0.888,0.452,1.896,0.125,2.83,0.096l0.369-0.039
		c-1.096,0.841-2.228,1.635-3.381,2.394c-0.145-0.252-0.291-0.491-0.456-0.719C46.416,38.784,46.074,38.526,45.736,38.27z"/>
	<path fill="#964891" d="M42.155,37.802c0.475-0.098,0.958-0.156,1.446-0.176c0.104,1.286-1.062,2.472-2.363,2.17
		c-0.888-0.039-1.402-0.774-1.841-1.436C40.377,38.648,41.293,38.238,42.155,37.802z"/>
	<path fill="#814996" d="M43.789,37.62c0.374,0.01,0.748,0.021,1.122,0.044c0.265,0.211,0.541,0.413,0.826,0.605
		c-0.868,0.704-1.802,1.298-2.664,2.004c-0.115-0.049-0.343-0.145-0.455-0.189C43.306,39.428,43.726,38.576,43.789,37.62z"/>
	<path fill="#2AAA95" d="M53.863,37.971c0.675-0.307,1.465-0.156,2.182-0.248c-0.946,0.787-1.922,1.543-2.939,2.223H52.98
		C53.199,39.261,53.375,38.516,53.863,37.971z"/>
	<path fill="#655098" d="M45.736,38.27c0.337,0.257,0.68,0.514,1.002,0.797c-0.827,0.636-1.673,1.269-2.675,1.61
		c-0.332-0.136-0.665-0.268-0.991-0.403C43.934,39.568,44.869,38.973,45.736,38.27z"/>
	<path fill="#AA3D6A" d="M38.175,38.505c0.259,0.205,0.521,0.41,0.789,0.616c0.592,0.452,1.221,0.865,1.893,1.205l0.192,0.099
		c-0.171,0.345-0.34,0.695-0.511,1.041c-0.984-0.462-1.919-1.031-2.838-1.607l-0.252-0.156C37.689,39.3,37.931,38.9,38.175,38.505z"
		/>
	<path fill="#5C659B" d="M46.739,39.067c0.166,0.228,0.312,0.467,0.456,0.719c0.089,0.428,0.156,0.862,0.229,1.295
		c-1.127-0.078-2.254-0.161-3.36-0.405C45.066,40.336,45.912,39.703,46.739,39.067z"/>
	<path fill="#794E7E" d="M37.7,39.858c0.919,0.576,1.854,1.145,2.838,1.607l0.101,0.055c-0.01,0.441-0.031,0.875-0.049,1.313
		c-1.012-0.462-1.973-1.023-2.962-1.529l0.004-0.127C37.658,40.736,37.679,40.292,37.7,39.858z"/>
	<path fill="#8F7A91" d="M40.857,40.326c0.587-0.068,1.171-0.163,1.761-0.241c0.112,0.044,0.34,0.14,0.455,0.189
		c0.327,0.136,0.659,0.268,0.991,0.403c1.106,0.244,2.233,0.327,3.36,0.405c0.063,0.306,0.125,0.613,0.192,0.924
		c-2.249-0.151-4.575-0.444-6.566-1.581L40.857,40.326z"/>
	<path fill="#C63A53" d="M41.049,40.425c1.992,1.137,4.318,1.43,6.566,1.581c0.026,0.112,0.078,0.345,0.109,0.462
		c-0.764,0.068-1.521,0.161-2.274,0.301c-1.018,0.205-2.067,0.2-3.103,0.138c-0.078-0.945-0.94-1.163-1.709-1.386l-0.101-0.055
		C40.709,41.12,40.878,40.77,41.049,40.425z"/>
	<path fill="#43AB51" d="M50.394,40.931l0.198-0.073c-0.639,1.678-1.278,3.368-1.361,5.183c-0.457,1.415-0.291,2.932-0.664,4.364
		c0.374-1.973,0.197-4.009-0.213-5.961c0.728-0.868,0.774-2.048,1.044-3.1C49.734,41.213,50.062,41.066,50.394,40.931z"/>
	<path fill="#009F54" d="M47.943,41.461c0.483-0.034,0.971-0.063,1.454-0.117c-0.271,1.052-0.317,2.232-1.044,3.1
		C48.109,43.47,47.975,42.468,47.943,41.461z"/>
	<path fill="#98527D" d="M40.639,41.521c0.769,0.223,1.631,0.441,1.709,1.386c0.081,0.239,0.164,0.48,0.242,0.725
		c-0.684-0.229-1.345-0.501-2-0.797C40.608,42.396,40.628,41.962,40.639,41.521z"/>
	<path fill="#B25658" d="M45.451,42.769c0.753-0.14,1.511-0.233,2.274-0.301c0.088,0.457,0.176,0.919,0.244,1.379
		c-0.836-0.01-1.672,0.013-2.498,0.156C45.46,43.592,45.455,43.174,45.451,42.769z"/>
	<path fill="#B1556D" d="M42.348,42.907c1.036,0.062,2.085,0.067,3.103-0.138c0.004,0.405,0.01,0.823,0.021,1.233
		c-0.982,0.151-1.932-0.187-2.882-0.371C42.511,43.387,42.428,43.146,42.348,42.907z"/>
	<path fill="#7FB94E" d="M48.566,50.405c0.374-1.433,0.207-2.949,0.664-4.364c0.171,0.695,0.369,1.394,0.634,2.059
		c-0.722,2.659-1.351,5.339-2.005,8.008c-0.146,0.541-0.389,1.033-0.634,1.526C46.925,55.137,48.057,52.795,48.566,50.405z"/>
	<path fill="#AAC845" d="M47.86,56.107c0.654-2.669,1.283-5.349,2.005-8.008c0.337,0.769,0.727,1.532,0.909,2.357
		c-0.327,0.458-0.607,0.95-0.712,1.501c-0.695,3.068-1.537,6.117-2.217,9.197c-0.135-0.582-0.233-1.174-0.338-1.761
		c-0.093-0.586-0.202-1.169-0.28-1.761C47.471,57.141,47.714,56.648,47.86,56.107z"/>
	<path fill="#D4DA39" d="M50.062,51.958c0.104-0.551,0.385-1.043,0.712-1.501c0.441,2.919-1.672,5.495-1.205,8.418
		c-0.099-0.188-0.203-0.369-0.312-0.556c-0.192,1.309-0.473,2.618-1.002,3.833l-0.213-0.312c-0.047-0.178-0.145-0.515-0.197-0.686
		C48.524,58.075,49.366,55.026,50.062,51.958z"/>
	<path fill="#1FB8BF" d="M60.365,65.445c2.27,0.383,4.496-0.868,6.756-0.297c1.584,0.617,2.861,2.353,4.736,1.994
		c1.137-0.384,2.361-0.504,3.551-0.265c0.754,0.156,1.262,0.769,1.885,1.173c0.822,0.203,1.693,0.073,2.541,0.219
		c-0.857,0.058-1.719,0.104-2.57,0c-0.785-0.349-1.352-1.193-2.285-1.164c-1.174-0.182-2.275,0.291-3.393,0.541
		c-1.553,0.177-2.85-0.853-4.127-1.584c-1.352-0.784-2.898-0.078-4.305,0.13c-1.803,0.457-3.838,0.426-5.418-0.659l0.287-0.037
		C58.803,65.424,59.586,65.293,60.365,65.445z"/>
	<path fill="#1FB8BF" d="M54.491,65.87c0.488-0.036,0.972-0.082,1.46-0.135l0.104-0.01c0.416,0.504,0.811,1.037,1.313,1.464
		c1.73-0.036,3.533-0.571,5.221,0.026c1.152,0.452,2.461,0.149,3.594,0.648c0.861,0.571,1.355,1.531,1.707,2.478
		c-0.545-0.742-0.955-1.626-1.781-2.104c-0.762-0.332-1.629-0.196-2.43-0.196c0.395,0.653,0.893,1.276,1.121,2.024
		c0.182,1.054,1.377,1.428,1.631,2.472c1.516-0.592,3.137-1.236,4.793-0.903c0.91,0.307,1.439,1.158,2.063,1.827
		c0.436,0.458,0.717,1.019,0.832,1.642c-0.553-1.221-1.592-2.171-2.66-2.95c-1.713-0.603-3.359,0.561-4.922,1.127
		c0.627,0.577,1.441,0.909,2.023,1.537c0.613,1.023,0.852,2.676-0.311,3.412c-0.801,0.499-0.654,1.48-0.727,2.296
		c-0.043-0.623-0.146-1.268,0.041-1.869c0.27-0.54,0.883-0.815,1.152-1.351c0.104-0.831-0.125-1.704-0.633-2.357
		c-0.592-0.442-1.314-0.686-1.859-1.185c-0.707-0.52-0.469-1.673-1.287-2.098c-1.309-0.759-2.773-1.288-4.291-1.418
		c-0.154,1.174-0.551,2.649,0.52,3.536c0.941,1.152,2.748,0.483,3.703,1.62c1.096,1.273,0.805,3.06,0.939,4.606
		c0.006,0.15,0.021,0.458,0.025,0.608c0.021,1.573,0.115,3.35-0.928,4.657c0.721-1.548,0.715-3.287,0.457-4.949
		c-0.068-0.456-0.137-0.903-0.209-1.35c-0.094-0.966-0.078-2.036-0.758-2.814c-0.52-0.675-1.459-0.576-2.213-0.686
		c-0.42-0.083-0.84-0.218-1.234-0.374l-0.125-0.083c-0.021-0.011-0.059-0.03-0.074-0.047l-0.113-0.077
		c-0.479-0.468-0.92-0.977-1.309-1.518c-0.281-1.152-0.234-2.353-0.135-3.53c-0.436-0.249-0.883-0.462-1.309-0.707
		c-0.541-0.468-1.07-0.935-1.668-1.318C55.557,67.246,55.006,66.566,54.491,65.87z M58.631,68.149
		c0.773,0.926,2.02,1.147,3.141,1.388c1.096,0.218,2.072,0.773,3.133,1.121c-0.426-0.784-0.914-1.558-1.621-2.108
		c-0.57-0.208-1.209-0.171-1.775-0.415C60.598,67.688,59.574,67.979,58.631,68.149z"/>
	<path fill="#F7E12A" d="M49.257,58.319c0.109,0.187,0.212,0.368,0.312,0.556c0.254,0.857,0.524,1.72,1.033,2.462
		c-0.135,1.028-0.374,2.051-0.727,3.033l-0.197-0.244c-0.509-0.629-0.961-1.305-1.423-1.974
		C48.784,60.938,49.065,59.628,49.257,58.319z"/>
	<path fill="#B6857C" d="M47.506,59.395c0.104,0.587,0.203,1.179,0.338,1.761c0.052,0.171,0.15,0.508,0.197,0.686
		c-0.285,1.382-0.233,2.804-0.203,4.206c-0.104,0-0.333-0.01-0.446-0.01c-0.083,0.063-0.265,0.182-0.354,0.238
		c-0.561-0.094-1.122-0.192-1.682-0.28c0.177-1.102,0.312-2.212,0.249-3.329l-0.348-0.004
		C46.162,61.686,46.915,60.579,47.506,59.395z"/>
	<path fill="#F6A136" d="M50.602,61.337c0.421,0.587,0.889,1.127,1.396,1.641c-0.187,0.95-0.378,1.896-0.576,2.846
		c0.333,0.005,0.676,0.011,1.008,0.021c0.234,0.005,0.701,0.015,0.935,0.015c0.374,0,0.747,0.011,1.127,0.011
		c0.515,0.696,1.065,1.376,1.724,1.953c-0.186,0-0.545,0.021-0.731,0.031c-0.909-0.52-1.796-1.086-2.669-1.684
		c-0.042,0.728-0.229,1.476-0.016,2.183c0.373,0.897,1.137,1.537,1.729,2.29c-0.166,0.596-0.338,1.189-0.529,1.771
		c-0.296-0.38-0.603-0.748-0.93-1.096c-0.831,1.573,0.479,3.115,0.66,4.699c-0.313-0.115-0.619-0.218-0.925-0.312
		c-0.249-0.977-0.769-1.849-1.008-2.819c-0.187-0.842,0.198-1.647,0.416-2.436c-0.493-0.561-0.894-1.184-1.185-1.859
		c0.177-0.826,0.229-1.677,0.119-2.515c-0.399-0.581-0.83-1.157-1.272-1.707C50.228,63.388,50.467,62.365,50.602,61.337z"/>
	<path fill="#72BE4D" d="M48.042,61.841l0.213,0.312c0.462,0.669,0.914,1.345,1.423,1.974c-0.073,0.664-0.12,1.323-0.125,1.993
		c-0.572-0.011-1.143-0.042-1.714-0.072C47.808,64.645,47.756,63.223,48.042,61.841z"/>
	<path fill="#E7138A" d="M44.282,63.285c0.337-0.198,0.654-0.411,0.976-0.623l0.348,0.004c0.063,1.117-0.072,2.228-0.249,3.329
		c0.561,0.088,1.122,0.187,1.682,0.28c-0.114,0.113-0.353,0.337-0.472,0.447c-0.925,0.861-1.886,1.702-3.002,2.3
		c-0.882,0.473-1.682,1.158-2.108,2.083c-0.652,1.24-0.005,2.669-0.301,3.978c-0.312,0.669-1.14,0.633-1.753,0.8
		c-0.841,0.135-1.612,0.529-2.277,1.044c-0.026-0.182-0.081-0.546-0.104-0.732c0.979-0.728,2.145-1.111,3.329-1.36
		c-0.047-1.559-0.499-3.262,0.361-4.68c0.922-1.859,3.061-2.486,4.354-4.004c-0.28-0.005-0.841-0.02-1.127-0.025
		C44.059,65.174,44.184,64.229,44.282,63.285z"/>
	<path fill="#EF7A31" d="M51.998,62.978c0.297,0.285,0.608,0.551,0.93,0.815c-0.166,0.685-0.332,1.361-0.498,2.052
		c-0.332-0.011-0.675-0.017-1.008-0.021C51.62,64.873,51.812,63.928,51.998,62.978z"/>
	<path fill="#B92189" d="M42.173,63.976c0.628-0.203,1.262-0.379,1.885-0.598l0.224-0.093c-0.099,0.943-0.224,1.889-0.343,2.84
		c-0.171-0.006-0.519-0.017-0.69-0.017c-0.896,1.58-2.371,2.659-3.792,3.734c0.06,1.631,0.426,3.594-0.935,4.836
		c-0.76,0.965-2.03,1.068-3.165,1.152c0.112-0.343,0.218-0.686,0.33-1.024c1.145,0.037,2.14-0.845,2.469-1.895
		c0.138-0.805-0.184-1.62-0.018-2.42c0.072-0.384,0.161-0.769,0.247-1.143l0.011-0.047c0.42-0.224,0.838-0.462,1.194-0.784
		c0.345-0.301,0.678-0.623,1.013-0.944c0.433-0.432,0.835-0.894,1.196-1.393c0.283-0.67,0.343-1.392,0.369-2.112L42.173,63.976z"/>
	<path fill="#EC572F" d="M52.928,63.793c0.271,0.208,0.546,0.404,0.832,0.603c-0.135,0.489-0.261,0.977-0.396,1.464
		c-0.233,0-0.7-0.01-0.935-0.015C52.596,65.154,52.762,64.478,52.928,63.793z"/>
	<path fill="#962A8C" d="M37.442,64.812c1.542-0.391,3.145-0.541,4.726-0.742c-0.026,0.721-0.085,1.442-0.369,2.112
		c-1.119-0.082-2.238-0.187-3.349-0.358C38.118,65.485,37.786,65.138,37.442,64.812z"/>
	<path fill="#86C670" d="M49.678,64.126l0.197,0.244c0.442,0.55,0.873,1.126,1.272,1.707c-0.529,0.022-1.064,0.031-1.593,0.042
		C49.558,65.449,49.604,64.79,49.678,64.126z"/>
	<path fill="#E92B39" d="M53.76,64.396c0.705,0.478,1.453,0.909,2.191,1.34c-0.488,0.053-0.972,0.099-1.46,0.135
		c-0.38,0-0.753-0.011-1.127-0.011C53.499,65.372,53.625,64.885,53.76,64.396z"/>
	<path fill="#333891" d="M31.448,67.2c1.392-1.008,2.604-2.519,4.465-2.556c-0.119,0.317-0.233,0.634-0.353,0.951
		c-1.28,0.192-2.194,1.173-3.236,1.843c-0.171,0.104-0.334,0.219-0.496,0.343l-0.143,0.104C31.626,67.708,31.507,67.371,31.448,67.2
		z"/>
	<path fill="#593390" d="M35.913,64.645c0.496,0.063,1.117-0.167,1.529,0.167c0.343,0.326,0.675,0.674,1.008,1.012
		c-0.956-0.156-1.921-0.265-2.89-0.228C35.68,65.278,35.794,64.962,35.913,64.645z"/>
	<path fill="#72318E" d="M35.524,67.371c0.862-0.213,1.75-0.395,2.627-0.136c-0.122,0.276-0.241,0.557-0.361,0.837
		c-0.94,0.16-1.807,0.581-2.765,0.639C35.215,68.27,35.368,67.823,35.524,67.371z"/>
	<path fill="#1567A7" d="M28.555,67.766c1.002,0.307,2.036-0.047,2.893-0.565c0.06,0.171,0.179,0.508,0.238,0.686
		c-1.069,0.623-2.394,0.779-3.572,0.384c-0.746-0.25-1.538-0.182-2.312-0.192c-0.01-0.135-0.037-0.4-0.044-0.534
		C26.698,67.512,27.648,67.49,28.555,67.766z"/>
	<path fill="#4E3D89" d="M31.829,67.781c0.161-0.124,0.324-0.238,0.496-0.343c1.067,0.031,2.137,0.042,3.199-0.067
		c-0.156,0.452-0.309,0.898-0.499,1.34c-0.844,0.707-1.462,1.61-1.96,2.581c-0.078-1.257,0.766-2.279,1.506-3.199
		c-1.028-0.124-2.088-0.15-3.048,0.312L31.829,67.781z"/>
	<path fill="#9A2A8D" d="M38.151,67.235c0.813,0.136,1.636,0.219,2.452,0.339c-0.335,0.321-0.668,0.644-1.013,0.944
		c-0.605-0.146-1.202-0.296-1.799-0.446C37.91,67.792,38.029,67.512,38.151,67.235z"/>
	<path fill="#2388AF" d="M23.7,68.291c0.54-0.552,1.352-0.588,2.059-0.748c0.007,0.134,0.034,0.399,0.044,0.534
		c-1.192-0.098-2.023,0.743-2.812,1.485c-1.304,0.795-2.997,0.598-4.336-0.005c1.134,0.146,2.308,0.426,3.425,0.011
		C22.791,69.412,23.165,68.716,23.7,68.291z"/>
	<path fill="#EF753C" d="M55.483,67.854c0.187-0.011,0.546-0.031,0.731-0.031c0.598,0.384,1.127,0.851,1.668,1.318
		c-0.156,1.272-0.254,2.556-0.285,3.838c-0.006,0.301,0.004,0.604,0.004,0.903c-0.176-0.088-0.514-0.28-0.686-0.373
		c-0.52-1.309,0.203-2.8-0.373-4.103C56.271,68.83,55.883,68.342,55.483,67.854z"/>
	<path fill="#8F2E8D" d="M34.742,70.638c1.125-0.645,2.347-1.121,3.643-1.288c-0.085,0.374-0.174,0.759-0.247,1.143
		c-1.093-0.301-2.104,0.39-3.092,0.758C34.971,71.095,34.817,70.794,34.742,70.638z"/>
	<path fill="#66328F" d="M33.348,71.936c0.371-0.524,0.844-0.966,1.394-1.298c0.075,0.156,0.229,0.457,0.304,0.612
		c-0.501,0.328-1.01,0.717-1.106,1.361c-0.194,1.018-1.218,1.453-1.965,2.014c-0.486,0.598-0.665,1.43-0.563,2.192
		c0.252,0.52,0.756,0.894,0.989,1.433c0.067,0.469,0.028,0.945,0,1.424c-0.058-0.479-0.135-0.972-0.21-1.449
		c-0.271-0.411-0.665-0.723-0.953-1.116c-0.249-0.654-0.166-1.393,0.037-2.052c0.306-1.074,1.529-1.386,2.126-2.249
		c-0.496-0.232-1.077-0.316-1.503-0.663c-0.174-0.312-0.333-0.614-0.499-0.926C32.031,71.505,32.681,71.739,33.348,71.936z"/>
	<path fill="#EF7B3D" d="M54.527,70.644c1.122,1.292,1.205,3.059,1.133,4.688c0.555,0.587,1.039,1.235,1.393,1.974
		c-0.271,0.233-0.531,0.488-0.801,0.727c-0.389-0.842-1.164-1.402-1.662-2.161c-0.295-1.131-0.145-2.351-0.592-3.457
		C54.189,71.833,54.361,71.239,54.527,70.644z"/>
	<path fill="#345192" d="M28.487,71.1c0.948-0.348,1.96-0.025,2.911,0.119c0.166,0.312,0.325,0.614,0.499,0.926
		c-1.098-0.323-2.3-0.946-3.443-0.499c-1.127,0.711-2.104,1.733-2.674,2.949c-0.028-0.904,0.644-1.553,1.168-2.201
		C27.384,71.89,27.828,71.323,28.487,71.1z"/>
	<path fill="#EC583C" d="M57.598,72.979c0.57,0.146,1.146,0.275,1.729,0.399c0.389,0.541,0.83,1.05,1.309,1.518
		c-0.924-0.571-1.973-0.868-3.033-1.014C57.602,73.583,57.592,73.28,57.598,72.979z"/>
	<path fill="#9A2F89" d="M33.441,76.075c0.439-0.827,1.369-1.164,2.246-1.269c-0.112,0.339-0.218,0.682-0.33,1.024
		c-0.75,0.145-1.39,0.675-1.561,1.433c-0.236,1.008-0.517,2.087-0.228,3.115l0.072,0.312c-0.766,0.613-0.402,1.693-0.49,2.536H32.79
		c0.004-0.665-0.011-1.319-0.005-1.984c-0.348,0.354-0.722,0.665-1.119,0.966c0.125-0.665,0.605-1.111,1.093-1.527
		C33.002,79.159,32.654,77.477,33.441,76.075z"/>
	<path fill="#8C9486" d="M60.748,74.974c0.016,0.017,0.053,0.036,0.074,0.047C60.801,75.01,60.764,74.99,60.748,74.974z"/>
	<path fill="#EA3E3A" d="M60.947,75.104c0.395,0.156,0.814,0.291,1.234,0.374c0.301,0.551,0.686,1.064,1.23,1.401
		c0.791,0.495,1.283,1.309,1.74,2.099c0.072,0.446,0.141,0.894,0.209,1.35c-0.914-0.914-1.248-2.284-2.432-2.953
		c0.104,1.691-0.27,3.35-1.158,4.803c0.473,1.075,0.68,2.238,0.514,3.4c-0.176,1.029,0.209,2.021,0.25,3.038
		c-0.27,0.707-0.68,1.351-1.059,2.005c0.119-0.935,1.1-1.703,0.732-2.68c-0.623-1.61,0.035-3.406-0.742-4.985
		c-0.143,0.156-0.428,0.468-0.566,0.623c0.082-0.383,0.508-0.726,0.285-1.132c-0.291-0.842-0.438-1.827-1.133-2.45
		c-0.705-0.136-1.438-0.022-2.129-0.203c-0.805-0.286-1.252-1.074-1.672-1.761c0.27-0.238,0.529-0.493,0.801-0.727
		c0.32,0.57,0.633,1.204,1.172,1.609c0.773,0.234,1.652,0.088,2.373,0.489c0.732,0.561,0.779,1.568,1.051,2.384
		C62.848,79.777,62.992,76.62,60.947,75.104z"/>
	<path fill="#E47140" d="M52.804,75.706c0.306,0.094,0.612,0.196,0.925,0.312c0.197,1.173,0.229,2.39,0.113,3.588
		c-0.113,0.956-0.748,1.818-1.682,2.114l-0.042-0.354c0.384-0.493,0.956-0.897,1.054-1.548
		C53.396,78.437,53.125,77.035,52.804,75.706z"/>
	<path fill="#BF2189" d="M34.815,77.98c0.6-0.748,1.423-1.257,2.207-1.786c0.023,0.187,0.078,0.551,0.104,0.732
		c-0.55,0.592-1.337,1.059-1.521,1.895c-0.271,1.268-0.255,2.639,0.241,3.854c0.063,0.156,0.19,0.468,0.255,0.623
		c0.354,0.841,0.766,1.656,1.14,2.482c-0.472-0.645-0.854-1.35-1.218-2.062c-0.083-0.172-0.254-0.509-0.337-0.676
		c-0.735-1.317-0.634-2.851-0.684-4.304c-0.42,0.669-0.659,1.5-1.36,1.951l-0.072-0.312C33.948,79.56,34.282,78.713,34.815,77.98z"
		/>
	<path fill="#C35345" d="M65.807,80.011c0.879,0.396,1.766,1.09,1.855,2.124c0.014,0.872,0.045,1.771-0.172,2.627
		c-0.168-1.048,0.135-2.206-0.432-3.166c-0.238-0.504-0.805-0.686-1.227-0.977C65.828,80.469,65.813,80.161,65.807,80.011z"/>
</g>
</svg>
