<?xml version="1.0" encoding="utf-8"?>
<!-- Generator: Adobe Illustrator 16.0.0, SVG Export Plug-In . SVG Version: 6.00 Build 0)  -->
<!DOCTYPE svg PUBLIC "-//W3C//DTD SVG 1.1//EN" "http://www.w3.org/Graphics/SVG/1.1/DTD/svg11.dtd">
<svg version="1.1" id="Layer_1" xmlns="http://www.w3.org/2000/svg" xmlns:xlink="http://www.w3.org/1999/xlink" x="0px" y="0px"
	 width="100px" height="100px" viewBox="0 0 100 100" enable-background="new 0 0 100 100" xml:space="preserve">
<g>
	<path fill="#1B75BB" d="M69.92,27.073c-1.106,0-2.003,0.899-2.003,2.008v22.407L55.955,75.861
		c-4.546-2.357-8.854-1.158-11.124-0.156L33.608,52.123V28.328c0-1.112-0.896-2.008-2.008-2.008c-1.109,0-2.008,0.896-2.008,2.008
		v24.25c0,0.297,0.064,0.594,0.192,0.861L48.51,92.771c0.332,0.699,1.03,1.141,1.804,1.146c0,0,0,0,0.012,0
		c0.763,0,1.467-0.436,1.799-1.123L71.73,52.834c0.134-0.273,0.203-0.576,0.203-0.885V29.082
		C71.934,27.973,71.037,27.073,69.92,27.073z"/>
	<polyline fill="#003058" points="51.199,29.582 29.467,14.631 41.775,36.494 51.328,29.082 	"/>
	<polyline fill="#003058" points="50.943,29.407 72.563,14.631 60.245,36.494 	"/>
	<path fill="#1B75BB" d="M53.086,34.608c0,1.249-1.014,2.258-2.259,2.258c-1.252,0-2.265-1.01-2.265-2.258
		c0-1.246,1.013-2.264,2.265-2.264C52.072,32.344,53.086,33.363,53.086,34.608z"/>
	<path fill="#1B75BB" d="M35.596,15.612c0,0,13.542-6.083,30.22,0.41l4.255-2.637c0,0-17.999-11.031-37.685-0.37"/>
</g>
</svg>
