<?xml version="1.0" encoding="utf-8"?>
<!-- Generator: Adobe Illustrator 16.0.0, SVG Export Plug-In . SVG Version: 6.00 Build 0)  -->
<!DOCTYPE svg PUBLIC "-//W3C//DTD SVG 1.1//EN" "http://www.w3.org/Graphics/SVG/1.1/DTD/svg11.dtd">
<svg version="1.1" id="Layer_1" xmlns="http://www.w3.org/2000/svg" xmlns:xlink="http://www.w3.org/1999/xlink" x="0px" y="0px"
	 width="100px" height="100px" viewBox="0 0 100 100" enable-background="new 0 0 100 100" xml:space="preserve">
<g>
	<g>
		<path fill="#0F5996" d="M38.099,25.345c6.576,4.521,12.156,10.735,15.168,18.188c2.45,6.004,2.866,12.767,1.4,19.071
			c-0.911-3.507-2.133-6.957-4-10.075c-2.431-4.17-5.84-7.73-9.763-10.523c-0.348-0.462-0.058-1.162-0.122-1.708
			C40.891,35.204,40.131,30.043,38.099,25.345z"/>
		<path fill="#0F5996" d="M21.51,36.137c7.744,1.018,15.356,3.941,21.355,9.006c4.646,3.904,8.068,9.197,9.813,15.007
			c0.486,1.585,0.848,3.205,1.128,4.835c-2.069-0.477-4.058-1.229-6.094-1.826c-1.975-0.598-4.007-1.09-5.854-2.042
			c-2.951-1.496-5.557-3.688-7.447-6.407c-2.886-4.019-4.608-8.746-7.488-12.768C25.382,39.778,23.529,37.86,21.51,36.137z"/>
	</g>
	<g>
		<path fill="#3BB44A" d="M58.759,56.829c2.083-3.268,5.969-5.397,9.871-5.036c3.17,0.304,6.346,1.681,8.41,4.158
			c-2.811-1.126-5.783-2.063-8.846-1.924c-1.418,0.074-2.792,0.628-3.909,1.506c-1.519,1.182-2.677,2.846-4.456,3.683
			c-0.925,0.473-1.992,0.523-3.012,0.449C57.469,58.724,58.121,57.774,58.759,56.829z"/>
		<path fill="#3BB44A" d="M73.262,59.023c5.874-2.95,12.814-3.294,19.161-1.884c-3.197,0.107-6.403,0.463-9.503,1.28
			c-4.325,1.178-8.372,3.288-11.88,6.066c-2.605,2.004-4.726,4.606-7.571,6.305c-3.424,2.107-7.6,3.072-11.594,2.435
			c-3.278-0.503-6.231-2.137-9.023-3.845c-2.39-1.512-4.784-3.031-7.441-4.021c-5.347-2.083-11.359-2.738-16.92-1.125
			c-1.802,0.479-3.457,1.351-5.171,2.057c3.159-1.917,6.765-3.032,10.404-3.615c5.398-0.851,10.908-0.467,16.274,0.433
			c2.708,0.462,5.384,1.11,8.004,1.944c3.538,1.123,7.157,2.545,10.941,2.17c2.542-0.198,4.916-1.311,6.94-2.806
			C68.366,62.649,70.574,60.489,73.262,59.023z"/>
	</g>
	<g>
		<path fill="#231F20" d="M69.093,56.407c0.948-0.517,2.208,0.397,1.994,1.462c-0.101,1.046-1.502,1.58-2.278,0.877
			C68.029,58.153,68.188,56.795,69.093,56.407z"/>
	</g>
	<path fill="#F69326" d="M22.185,65.094c4.172-0.804,8.662-0.358,12.48,1.553c-1.461,0.02-2.944,0.135-4.341,0.607
		c-1.945,0.598-3.589,1.85-5.317,2.884c-3.878,2.339-8.75,2.903-13.091,1.647c-2.164-0.615-4.213-1.723-5.783-3.351
		c2.242,1.048,4.834,0.864,7.12,0.041C16.277,67.47,19.029,65.715,22.185,65.094z"/>
	<path fill="#F69326" d="M26.547,70.791c2.592-1.62,5.516-3.01,8.642-2.892c2.879,0.07,5.428,1.603,7.845,3.015
		c2.464,1.454,4.942,3.031,7.771,3.669c5.202,1.158,10.745-0.368,15.002-3.488c-2.644,2.63-6.06,4.453-9.655,5.389
		c-3.865,0.898-8.149,0.916-11.737-0.982c-2.208-1.091-4.196-2.663-6.593-3.331c-2.107-0.551-4.348-0.139-6.317,0.708
		c-1.657,0.676-3.126,1.735-4.719,2.545c-3.524,1.826-7.404,3.066-11.39,3.315c-2.38,0.136-4.821-0.03-7.08-0.856
		c2.484-0.709,4.8-1.959,6.802-3.565c0.341-0.263,0.689-0.574,1.151-0.514C19.889,73.763,23.485,72.723,26.547,70.791z"/>
</g>
</svg>
