<?xml version="1.0" encoding="utf-8"?>
<!-- Generator: Adobe Illustrator 16.0.0, SVG Export Plug-In . SVG Version: 6.00 Build 0)  -->
<!DOCTYPE svg PUBLIC "-//W3C//DTD SVG 1.1//EN" "http://www.w3.org/Graphics/SVG/1.1/DTD/svg11.dtd">
<svg xmlns="http://www.w3.org/2000/svg" xmlns:xlink="http://www.w3.org/1999/xlink" version="1.1" id="Layer_1" x="0px" y="0px" width="100px" height="100px" viewBox="0 0 100 100" enable-background="new 0 0 100 100" xml:space="preserve">

<g>
	<path fill="#00ADEE" d="M81.095,20.364c0,0-25.017-3.72-32.232,23.772c0,0,40.73-0.058,35,34.448c0,0,21.66-30.379-21.572-43.606   C62.29,34.978,66.04,25.701,81.095,20.364z"/>
	<path fill="#F6921E" d="M79.394,82.924c0,0,3.724-25.018-23.77-32.233c0,0,0.054,40.727-34.443,35c0,0,30.375,21.666,43.599-21.569   C64.779,64.121,74.056,67.869,79.394,82.924z"/>
	<path fill="#EB008B" d="M14.731,80.676c0,0,24.698,5.455,33.806-21.471c0,0-40.628-2.777-32.511-36.8   c0,0-23.728,28.795,18.48,45.001C34.506,67.406,30.119,76.399,14.731,80.676z"/>
	<path fill="#8BC53F" d="M18.516,17.841c0,0-4.903,24.813,22.216,33.324c0,0,1.878-40.682,36.07-33.324   c0,0-29.316-23.081-44.581,19.477C32.221,37.317,23.133,33.133,18.516,17.841z"/>
	<ellipse fill="#EB008B" cx="29.868" cy="23.059" rx="3.968" ry="5.025"/>
	<path fill="#8BC53F" d="M76.613,35.914c-2.773,0.128-5.106-1.54-5.209-3.727c-0.108-2.187,2.056-4.069,4.828-4.201   c2.774-0.128,5.107,1.536,5.209,3.723C81.543,33.899,79.38,35.781,76.613,35.914z"/>
	<path fill="#00ADEE" d="M63.85,78.441c-0.135-2.774,1.533-5.107,3.723-5.209c2.191-0.105,4.069,2.055,4.199,4.829   c0.135,2.772-1.533,5.105-3.725,5.208C65.857,83.374,63.979,81.211,63.85,78.441z"/>
	<path fill="#F6921E" d="M20.286,65.475c2.78,0.064,4.984,1.888,4.937,4.083c-0.047,2.19-2.333,3.913-5.107,3.852   c-2.78-0.062-4.99-1.886-4.936-4.076C15.226,67.143,17.512,65.414,20.286,65.475z"/>
</g>
</svg>
