<?xml version="1.0" encoding="utf-8"?>
<!-- Generator: Adobe Illustrator 16.0.0, SVG Export Plug-In . SVG Version: 6.00 Build 0)  -->
<!DOCTYPE svg PUBLIC "-//W3C//DTD SVG 1.1//EN" "http://www.w3.org/Graphics/SVG/1.1/DTD/svg11.dtd">
<svg xmlns="http://www.w3.org/2000/svg" xmlns:xlink="http://www.w3.org/1999/xlink" version="1.1" id="Layer_1" x="0px" y="0px" width="100px" height="100px" viewBox="0 0 100 100" enable-background="new 0 0 100 100" xml:space="preserve">

<g>
	<radialGradient id="SVGID_13_" cx="50.8398" cy="77.3223" r="9.6844" gradientUnits="userSpaceOnUse">
		<stop offset="0" style="stop-color:#C8CACB"/>
		<stop offset="1" style="stop-color:#EEEFEF"/>
	</radialGradient>
	<path fill="url(#SVGID_13_)" d="M64.515,77.321c0,0.42-6.121,0.76-13.677,0.76c-7.551,0-13.674-0.34-13.674-0.76   s6.123-0.759,13.674-0.759C58.394,76.563,64.515,76.901,64.515,77.321z"/>
	<g>
		<path fill="#204181" d="M89.519,42.123c0.192,1.247,0.18,2.495,0,3.742c-0.172,1.251-0.518,2.5-1.06,3.739    c-0.556,1.225-1.32,2.45-2.397,3.538c-0.53,0.553-1.149,1.052-1.834,1.493c-0.682,0.441-1.429,0.836-2.227,1.109    c-0.793,0.282-1.621,0.481-2.452,0.596c-0.829,0.104-1.66,0.111-2.462,0.064c-1.612-0.089-3.097-0.494-4.459-0.977    c-1.345-0.47-2.674-1.244-3.51-1.647l-2.792-1.472c-1.833-0.955-3.6-1.893-5.275-2.612c-0.829-0.375-1.641-0.66-2.405-0.922    c-0.383-0.125-0.76-0.216-1.128-0.309c-0.368-0.092-0.731-0.161-1.098-0.204c-0.362-0.034-0.735-0.083-1.113-0.081    c-0.377,0-0.767,0.033-1.175,0.078c-0.813,0.112-1.7,0.339-2.617,0.691c-0.93,0.342-1.882,0.805-2.873,1.315l-3.08,1.658    l-0.444-0.337c1.315-1.812,2.773-3.557,4.542-5.005c0.888-0.715,1.861-1.344,2.915-1.824c1.053-0.484,2.187-0.81,3.341-0.95    c2.324-0.299,4.645,0.166,6.795,0.864c2.161,0.71,4.21,1.672,6.202,2.702c0.993,0.522,1.971,1.073,2.939,1.631    c0.983,0.569,1.895,1.132,2.887,1.558c0.987,0.432,2.014,0.762,3.059,0.916c1.044,0.154,2.107,0.139,3.125-0.102    c2.057-0.463,3.81-1.866,5.111-3.581c1.319-1.712,2.306-3.732,2.947-5.812L89.519,42.123z"/>
		<path fill="#F47E20" d="M74.222,51.252c0.191,1.246,0.18,2.495,0,3.741c-0.175,1.252-0.521,2.5-1.063,3.74    c-0.556,1.225-1.317,2.449-2.396,3.537c-0.529,0.553-1.149,1.05-1.831,1.496c-0.684,0.441-1.431,0.83-2.229,1.106    c-0.793,0.282-1.621,0.479-2.452,0.594c-0.831,0.106-1.659,0.113-2.462,0.066c-1.612-0.086-3.096-0.493-4.459-0.978    c-1.345-0.471-2.676-1.242-3.51-1.649l-2.792-1.469c-1.833-0.955-3.602-1.896-5.276-2.611c-0.828-0.376-1.641-0.66-2.405-0.925    c-0.385-0.125-0.76-0.213-1.13-0.306c-0.366-0.093-0.731-0.164-1.098-0.207c-0.361-0.033-0.731-0.08-1.111-0.077    c-0.379-0.003-0.767,0.033-1.178,0.077c-0.812,0.11-1.695,0.338-2.616,0.691c-0.929,0.339-1.881,0.805-2.874,1.313l-3.077,1.656    l-0.446-0.334c1.315-1.813,2.773-3.555,4.543-5.005c0.888-0.715,1.862-1.345,2.916-1.826c1.052-0.481,2.185-0.808,3.338-0.947    c2.327-0.299,4.645,0.167,6.795,0.861c2.163,0.713,4.211,1.672,6.204,2.705c0.992,0.524,1.971,1.07,2.939,1.631    c0.98,0.57,1.893,1.13,2.888,1.558c0.985,0.432,2.011,0.76,3.061,0.916c1.042,0.151,2.104,0.139,3.124-0.099    c2.052-0.466,3.808-1.869,5.109-3.586c1.32-1.709,2.306-3.728,2.944-5.81L74.222,51.252z"/>
		<path fill="#85BA40" d="M61.763,62.816c0.195,1.247,0.183,2.496,0,3.742c-0.171,1.254-0.518,2.5-1.059,3.74    c-0.557,1.225-1.32,2.449-2.396,3.54c-0.529,0.55-1.151,1.049-1.832,1.493c-0.682,0.438-1.43,0.833-2.228,1.108    c-0.793,0.28-1.621,0.479-2.452,0.594c-0.831,0.104-1.66,0.111-2.463,0.064c-1.614-0.086-3.096-0.493-4.461-0.977    c-1.342-0.47-2.673-1.241-3.509-1.647l-2.791-1.472c-1.835-0.952-3.602-1.893-5.276-2.609c-0.831-0.378-1.641-0.662-2.404-0.924    c-0.385-0.126-0.76-0.216-1.13-0.309c-0.366-0.093-0.732-0.161-1.098-0.204c-0.361-0.033-0.731-0.083-1.11-0.08    c-0.38,0-0.768,0.032-1.178,0.077c-0.812,0.111-1.698,0.34-2.617,0.691c-0.928,0.342-1.883,0.805-2.873,1.315l-3.077,1.657    l-0.447-0.336c1.315-1.813,2.774-3.556,4.542-5.006c0.89-0.716,1.864-1.345,2.918-1.823c1.052-0.484,2.185-0.808,3.338-0.95    c2.324-0.298,4.644,0.168,6.795,0.864c2.163,0.712,4.21,1.672,6.202,2.702c0.995,0.524,1.971,1.073,2.942,1.634    c0.98,0.568,1.892,1.129,2.887,1.558c0.985,0.432,2.011,0.759,3.056,0.916c1.047,0.151,2.108,0.136,3.126-0.102    c2.054-0.466,3.812-1.869,5.112-3.584c1.319-1.712,2.305-3.729,2.941-5.813L61.763,62.816z"/>
		<circle fill="#204181" cx="56.099" cy="37.112" r="5.02"/>
		<circle fill="#F47E20" cx="36.264" cy="48.121" r="5.02"/>
		<circle fill="#85BA40" cx="19.62" cy="61.222" r="5.021"/>
		<path fill="#85BA40" d="M17.363,77.473c-3.058-3.559-5.272-7.887-6.477-12.51c-1.183-4.627-1.365-9.545-0.461-14.295    c0.865-4.761,2.875-9.311,5.699-13.266c2.849-3.946,6.572-7.251,10.812-9.659c4.26-2.372,9.032-3.823,13.883-4.186    c1.209-0.088,2.441-0.107,3.63-0.067c1.235,0.045,2.432,0.145,3.638,0.318c1.201,0.168,2.393,0.401,3.565,0.7    c1.172,0.309,2.327,0.674,3.455,1.106c2.258,0.862,4.426,1.947,6.43,3.279c2.004,1.33,3.863,2.865,5.524,4.58    c3.306,3.445,5.858,7.583,7.299,12.049c-2.016-4.229-4.811-8.023-8.247-11.064c-1.705-1.531-3.563-2.88-5.535-4.013    c-1.973-1.133-4.044-2.083-6.197-2.785c-2.148-0.701-4.366-1.173-6.603-1.432c-1.113-0.128-2.256-0.193-3.357-0.202    c-1.149-0.005-2.256,0.048-3.381,0.157c-4.471,0.411-8.847,1.766-12.74,3.984c-7.854,4.345-13.714,12.121-15.754,20.944    c-0.524,2.2-0.79,4.464-0.856,6.74c-0.064,2.275,0.111,4.563,0.526,6.819C13.009,69.191,14.804,73.552,17.363,77.473z"/>
	</g>
</g>
</svg>
