<?xml version="1.0" encoding="utf-8"?>
<!-- Generator: Adobe Illustrator 16.0.0, SVG Export Plug-In . SVG Version: 6.00 Build 0)  -->
<!DOCTYPE svg PUBLIC "-//W3C//DTD SVG 1.1//EN" "http://www.w3.org/Graphics/SVG/1.1/DTD/svg11.dtd">
<svg version="1.1" id="Layer_1" xmlns="http://www.w3.org/2000/svg" xmlns:xlink="http://www.w3.org/1999/xlink" x="0px" y="0px"
	 width="100px" height="100px" viewBox="0 0 100 100" enable-background="new 0 0 100 100" xml:space="preserve">
<g>
	<path fill="#E96AA2" d="M45.312,48.547c-0.469-3.825-1.778-7.566-3.861-10.811c-3.637-5.933-7.615-11.695-12.215-16.922
		c-2.686-2.871-5.523-5.717-9.011-7.599c-2.045-1.109-4.567-1.829-6.819-0.921c-2.097,0.823-3.114,3.062-3.61,5.107
		c-0.984,4.283-0.545,8.744,0.191,13.036c1.336,7.105,3.784,14.031,7.413,20.302c1.688,2.737,3.591,5.416,6.089,7.477
		c1.981,1.662,4.493,2.448,6.794,3.538l0.121-0.108c0,0,8.479,2.366,13.011-3.942C43.414,57.703,45.453,54.872,45.312,48.547z"/>
	<polygon fill="#19AEE0" points="43.708,18.771 44.439,20.545 46.348,20.395 44.892,21.638 45.622,23.416 43.987,22.41 
		42.522,23.656 42.972,21.792 41.336,20.779 43.25,20.635 	"/>
	<polygon fill="#19AEE0" points="17.937,60.436 18.67,62.213 20.584,62.06 19.12,63.31 19.853,65.081 18.218,64.078 16.753,65.321 
		17.206,63.456 15.57,62.447 17.487,62.3 	"/>
	<g>
		<path fill="#18B6EA" d="M67.932,62.561c8.163-5.55,14.101-13.828,18.432-22.586c1.832-4.145,3.538-8.597,3.086-13.216
			c-0.202-2.121-1.642-4.196-3.745-4.769c-1.845-0.501-3.797-0.352-5.635,0.071c-4.863,1.33-9.204,3.997-13.381,6.751
			c-4.581,3.225-9.01,6.696-13.104,10.539c-3.681,3.165-6.615,7.369-7.787,12.114c0,0-1.729,6.843,3.768,10.365
			C49.565,61.83,58.737,67.601,67.932,62.561z"/>
	</g>
	<g>
		<path fill="#A9BEB4" d="M59.146,23.713c0.747-0.619,1.652,0.674,0.851,1.188C59.25,25.521,58.355,24.229,59.146,23.713z"/>
	</g>
	<g>
		<path fill="#A6BBB4" d="M13.664,55.865c0.505-0.774,1.838,0.061,1.211,0.829C14.37,57.485,13.045,56.634,13.664,55.865z"/>
	</g>
	<g>
		<path fill="#F1A653" d="M43.133,66.342c-1.93,5.011-4.564,10.202-9.196,13.245c-3.94,2.71-8.856,4.198-13.641,3.632
			c-2.324-0.414-5.282-1.123-6.095-3.676c-0.321-1.919,0.808-3.719,1.934-5.181c4.128-5.148,9.407-9.194,14.107-13.786
			c0,0,14.825-16.498,15.196-10.437C45.437,50.14,46.893,55.385,43.133,66.342z"/>
	</g>
	<g>
		<path fill="#33B06F" d="M43.414,67.66c0.436,5.354,1.494,11.076,5.077,15.307c3.01,3.708,7.301,6.521,12.045,7.341
			c2.356,0.262,5.388,0.425,6.894-1.8c0.851-1.751,0.277-3.796-0.388-5.519c-2.497-6.107-6.418-11.485-9.636-17.211
			c0,0-9.542-20.018-11.609-14.313C45.797,51.465,42.915,56.089,43.414,67.66z"/>
	</g>
	<g>
		<polygon fill="#DD779E" points="37.683,82.172 38.416,83.949 40.33,83.796 38.871,85.046 39.599,86.823 37.963,85.814 
			36.502,87.058 36.952,85.197 35.315,84.188 37.232,84.036 		"/>
		<g>
			<path fill="#ABB9B7" d="M31.229,86.044c0.742,0.009,0.715,1.281-0.033,1.264C30.454,87.287,30.476,86.016,31.229,86.044z"/>
		</g>
	</g>
	<g>
		<polygon fill="#DD779E" points="72.381,64.454 73.111,66.226 75.031,66.079 73.564,67.322 74.295,69.1 72.665,68.091 
			71.197,69.341 71.65,67.469 70.015,66.467 71.929,66.319 		"/>
		<g>
			<path fill="#ABB9B7" d="M65.924,68.32c0.742,0.011,0.715,1.281-0.032,1.259C65.149,69.553,65.172,68.293,65.924,68.32z"/>
		</g>
	</g>
	<polygon fill="#EBAA5B" points="49.271,25.194 49.499,28.951 53.147,29.903 49.642,31.277 49.87,35.042 47.471,32.13 43.965,33.51 
		45.988,30.331 43.599,27.418 47.242,28.368 	"/>
</g>
</svg>
