<?xml version="1.0" encoding="utf-8"?>
<!-- Generator: Adobe Illustrator 16.0.0, SVG Export Plug-In . SVG Version: 6.00 Build 0)  -->
<!DOCTYPE svg PUBLIC "-//W3C//DTD SVG 1.1//EN" "http://www.w3.org/Graphics/SVG/1.1/DTD/svg11.dtd">
<svg version="1.1" id="Layer_1" xmlns="http://www.w3.org/2000/svg" xmlns:xlink="http://www.w3.org/1999/xlink" x="0px" y="0px"
	 width="100px" height="100px" viewBox="0 0 100 100" enable-background="new 0 0 100 100" xml:space="preserve">
<g>
	<path fill="#2E3191" d="M86.452,68.587l1.788,1.943c0,0-8.631,6.054-32.416-1.077c0,0-20.104-6.812-18.734-20.433l1.261,0.108
		c0,0-0.282,10.753,19.683,17.832C64.583,69.288,75.08,71.184,86.452,68.587"/>
	<path fill="#2E3191" d="M38.034,44.783c0,0,6.739-15.866,38.524-8.215l-0.948,2.136l2.523,0.564l0.739-4.277
		c0,0-33.153-10.571-41.47,9.34C37.403,44.33,37.09,46.018,38.034,44.783"/>
	<path fill="#8BC53F" d="M41.626,49.861c-0.387,0.951-0.465,2.183-0.133,3.436c0.633,2.394,2.5,3.976,4.17,3.531
		c1.509-0.395,2.338-2.314,2.02-4.448L41.626,49.861z"/>
	<path fill="#EC1C24" d="M51.957,40.86c0.898,1.125,0.317,3.079-1.293,4.364c-1.614,1.285-3.647,1.409-4.544,0.286
		c-0.898-1.122-0.315-3.077,1.297-4.358C49.027,39.865,51.063,39.735,51.957,40.86"/>
	<path fill="#231F20" d="M61.068,63.703c0.395-1.41,2.896-1.959,5.589-1.217c2.702,0.744,4.576,2.485,4.188,3.902
		c-0.391,1.413-2.892,1.959-5.589,1.215C62.555,66.864,60.686,65.111,61.068,63.703"/>
	<path fill="#00ADEE" d="M49.871,58.968c0.646-1.312,3.209-1.373,5.717-0.138c2.508,1.233,4.021,3.306,3.371,4.616
		c-0.646,1.316-3.209,1.378-5.717,0.14C50.73,62.352,49.225,60.281,49.871,58.968"/>
	<path fill="#231F20" d="M53.769,38.732l2.175,5.431c0,0,16.977-7.66,26.225,6.504C82.168,50.667,77.341,33.285,53.769,38.732"/>
	<path fill="#8BC53F" d="M54.644,38.143l2.175,5.426c0,0,16.978-7.658,26.224,6.501C83.042,50.07,78.215,32.69,54.644,38.143"/>
	<g>
		<path fill="#00ADEE" d="M35.032,45.239c0.177-0.286,0.227-0.484,0.221-0.604l0,0c0-0.217-0.128-0.34-0.362-0.461l0,0
			c-0.221-0.112-0.455-0.145-0.455-0.145l0,0l-0.044-0.007L23.268,39.94l-0.05-0.043c-0.567-0.472-3.352-2.431-3.352-2.435l0,0
			c-1.22-0.677-2.24-0.902-3.07-0.902l0,0c-0.952,0-1.664,0.296-2.144,0.587l0,0c-0.483,0.29-0.708,0.555-0.752,0.601l0,0
			c-0.515,0.426-1.086,0.573-1.578,0.573l0,0c-0.91-0.005-1.579-0.449-1.598-0.457l0,0l-2.255-1.375l0.389-0.643l2.265,1.382
			c0.003-0.01,0.143,0.082,0.361,0.17l0,0c0.217,0.087,0.513,0.174,0.838,0.17l0,0c0.352,0,0.727-0.093,1.049-0.351l0,0
			c0.037-0.041,1.202-1.401,3.425-1.405l0,0c0.968,0,2.122,0.261,3.467,1.012l0,0c0.008,0.004,2.655,1.862,3.383,2.452l0,0
			l10.956,4.024c0.275,0.046,1.325,0.244,1.403,1.331l0,0c-0.002,0.31-0.114,0.639-0.336,0.999l0,0L35.032,45.239L35.032,45.239z"/>
	</g>
	<path fill="#006838" d="M37.779,46.152l-2.086-0.948l-0.163-1.263c0,0,1.639,0.86,2.767,1.228
		c1.126,0.364,40.286,16.234,51.213,22.512c0,0,6.738,3.878-0.441,1.664c0,0-14.051-7.146-18.618-9.293
		C65.892,57.903,41.758,47.515,37.779,46.152"/>
	<path fill="#006838" d="M35.594,47.375l-1.899-0.781l-0.856,0.626c0,0,1.562,0.55,2.496,1.061
		c0.939,0.511,35.375,16.446,46.094,19.817c0,0,6.611,2.075,0.712-1.253c0,0-13.226-4.873-17.418-6.554
		C60.534,58.609,38.944,49.141,35.594,47.375"/>
	<path fill="#00ADEE" d="M9.78,38.172c0,0,3.379,2.107,4.628,0.22c0,0,4.032-2.858,8.711,1.781c0,0,4.875,2.649,11.458,4.857
		c0,0,2.226-0.263-0.983,3c0,0-10.024-5.208-11.093-5.941c0,0-0.616-0.449-1.337,0.41C21.164,42.499,17.665,45.169,9.78,38.172"/>
</g>
</svg>
