<?xml version="1.0" encoding="utf-8"?>
<!-- Generator: Adobe Illustrator 16.0.0, SVG Export Plug-In . SVG Version: 6.00 Build 0)  -->
<!DOCTYPE svg PUBLIC "-//W3C//DTD SVG 1.1//EN" "http://www.w3.org/Graphics/SVG/1.1/DTD/svg11.dtd">
<svg version="1.1" id="Layer_1" xmlns="http://www.w3.org/2000/svg" xmlns:xlink="http://www.w3.org/1999/xlink" x="0px" y="0px"
	 width="100px" height="100px" viewBox="0 0 100 100" enable-background="new 0 0 100 100" xml:space="preserve">
<g>
	<path fill="#58595B" d="M47.105,30.12c1.933,4.489,6.231,7.234,10.813,7.407c1.074,0.052,2.041-0.047,3.104-0.289
		c0.736-0.16,1.475-0.396,2.193-0.708c6.225-2.679,9.096-9.888,6.416-16.112c-1.578-3.674-4.75-6.184-8.361-7.063
		c-0.57-0.117-1.141-0.215-1.719-0.294c-1.992-0.192-4.063,0.096-6.031,0.94C47.3,16.68,44.426,23.895,47.105,30.12z"/>
	<path fill="#EF7823" d="M24.584,64.068c-7.605-17.668,0.553-38.15,18.217-45.752c0.353-0.152,0.702-0.297,1.051-0.434
		c1.665-3.276,4.438-6.007,8.077-7.57c2.613-1.127,5.363-1.511,8.01-1.255c-6.461-0.885-13.242-0.081-19.671,2.685
		C21.46,19.839,12.775,41.655,20.869,60.464c2.475,5.748,6.231,10.551,10.793,14.217c-0.021-0.028-0.038-0.061-0.061-0.09
		C28.718,71.624,26.314,68.091,24.584,64.068z"/>
	<path fill="none" stroke="#231F20" stroke-width="0.3641" stroke-miterlimit="10" d="M31.601,74.591
		c0.023,0.029,0.041,0.062,0.061,0.09c0.046,0.038,0.091,0.073,0.137,0.108C31.732,74.724,31.665,74.655,31.601,74.591z"/>
	<path fill="#00AD4D" d="M24.584,64.068c1.729,4.022,4.134,7.556,7.017,10.522c-0.973-1.546-1.846-3.181-2.591-4.912
		c-6.79-15.777-1.008-33.803,12.886-42.896c0.082-0.087,0.158-0.181,0.236-0.271c-0.23-3.008,0.384-5.995,1.721-8.629
		c-0.35,0.136-0.699,0.282-1.051,0.434C25.137,25.918,16.979,46.4,24.584,64.068z"/>
	<path fill="none" stroke="#231F20" stroke-width="0.3641" stroke-miterlimit="10" d="M42.132,26.512
		c-0.079,0.09-0.155,0.184-0.236,0.271c0.082-0.052,0.163-0.099,0.245-0.151C42.135,26.591,42.135,26.55,42.132,26.512z"/>
	<path fill="#0081B4" d="M59.334,82.626c-9.798-2.737-18.323-9.712-22.655-19.784c-5.36-12.452-2.888-26.299,5.217-36.059
		C28.002,35.875,22.22,53.901,29.01,69.679c0.745,1.731,1.618,3.366,2.591,4.912c0.064,0.064,0.131,0.133,0.198,0.198
		C39.477,80.908,49.408,83.82,59.334,82.626z"/>
	<path fill="#EC297B" d="M36.679,62.842c4.332,10.072,12.856,17.047,22.655,19.784c1.768-0.216,3.537-0.553,5.293-1.031
		c-8.889,1.306-17.892-3.429-21.616-12.076c-4.434-10.307,0.324-22.262,10.633-26.699c1.354-0.582,2.736-1.001,4.125-1.278
		c-6.084-0.224-11.792-3.869-14.359-9.832c-0.716-1.666-1.124-3.372-1.27-5.078c-0.082,0.052-0.163,0.099-0.245,0.151
		C33.791,36.543,31.319,50.39,36.679,62.842z"/>
</g>
</svg>
